<?xml version="1.0" standalone="no"?>
 <!DOCTYPE svg PUBLIC "-//W3C//DTD SVG 1.1//EN" 
 "http://www.w3.org/Graphics/SVG/1.1/DTD/svg11.dtd"> 
<svg xmlns="http://www.w3.org/2000/svg" version="1.1" 
    width="29.7002cm" height="21.0007cm" viewBox="0 0 116930 82680 ">
<title>SVG Picture created as kostka-F.CrtYd.svg date 2016/12/12 17:30:46 </title>
  <desc>Picture generated by PCBNEW </desc>
<g style="fill:#000000; fill-opacity:1;stroke:#000000; stroke-opacity:1;
stroke-linecap:round; stroke-linejoin:round; "
 transform="translate(0 0) scale(1 1)">
</g>
<g style="fill:#000000; fill-opacity:0.0; 
stroke:#000000; stroke-width:-0.000393701; stroke-opacity:1; 
stroke-linecap:round; stroke-linejoin:round;">
</g>
<g style="fill:#000000; fill-opacity:0.0; 
stroke:#000000; stroke-width:59.0551; stroke-opacity:1; 
stroke-linecap:round; stroke-linejoin:round;">
<path d="M45275 47244
L33464 47244
" />
<path d="M31496 33464
L31496 45275
" />
<path d="M45275 31496
L33464 31496
" />
<path d="M47244 45275
L47244 33464
" />
<path d="M45275.6 47244.1 A1968.5 1968.5 0.0 0 0 47244.1 45275.6 " />
<path d="M31496.1 45275.6 A1968.5 1968.5 0.0 0 0 33464.6 47244.1 " />
<path d="M33464.6 31496.1 A1968.5 1968.5 0.0 0 0 31496.1 33464.6 " />
<path d="M47244.1 33464.6 A1968.5 1968.5 0.0 0 0 45275.6 31496.1 " />
</g>
<g style="fill:#000000; fill-opacity:0.0; 
stroke:#000000; stroke-width:19.685; stroke-opacity:1; 
stroke-linecap:round; stroke-linejoin:round;">
<path d="M41732 36614
L41732 31889
" />
<path d="M37007 31889
L37007 36614
" />
<path d="M37007 36614
L41732 36614
" />
<path d="M37007 31889
L41732 31889
" />
<path d="M34370 41338
L32559 41338
" />
<path d="M34370 40551
L32559 40551
" />
<path d="M34370 41338
L34370 40551
" />
<path d="M32559 41338
L32559 40551
" />
<path d="M37519 44488
L35708 44488
" />
<path d="M37519 43700
L35708 43700
" />
<path d="M37519 44488
L37519 43700
" />
<path d="M35708 44488
L35708 43700
" />
<path d="M42755 39665
L42755 39074
" />
<path d="M42755 39074
L43858 39074
" />
<path d="M43858 39074
L43858 39665
" />
<path d="M43858 39665
L42755 39665
" />
<path d="M42755 42814
L42755 42224
" />
<path d="M42755 42224
L43858 42224
" />
<path d="M43858 42224
L43858 42814
" />
<path d="M43858 42814
L42755 42814
" />
<path d="M42755 36515
L42755 35925
" />
<path d="M42755 35925
L43858 35925
" />
<path d="M43858 35925
L43858 36515
" />
<path d="M43858 36515
L42755 36515
" />
<path d="M39921 39074
L39921 39665
" />
<path d="M39921 39665
L38818 39665
" />
<path d="M38818 39665
L38818 39074
" />
<path d="M38818 39074
L39921 39074
" />
<path d="M35984 42224
L35984 42814
" />
<path d="M35984 42814
L34881 42814
" />
<path d="M34881 42814
L34881 42224
" />
<path d="M34881 42224
L35984 42224
" />
<path d="M35984 35925
L35984 36515
" />
<path d="M35984 36515
L34881 36515
" />
<path d="M34881 36515
L34881 35925
" />
<path d="M34881 35925
L35984 35925
" />
<path d="M35984 39074
L35984 39665
" />
<path d="M35984 39665
L34881 39665
" />
<path d="M34881 39665
L34881 39074
" />
<path d="M34881 39074
L35984 39074
" />
<path d="M40846 43602
L40846 41437
" />
<path d="M37893 43602
L37893 41437
" />
<path d="M40846 43602
L37893 43602
" />
<path d="M40846 41437
L37893 41437
" />
<path d="M46220 39763
L44330 39763
" />
<path d="M46220 38976
L44330 38976
" />
<path d="M46220 39763
L46220 38976
" />
<path d="M44330 39763
L44330 38976
" />
<path d="M44330 42125
L46220 42125
" />
<path d="M44330 42913
L46220 42913
" />
<path d="M44330 42125
L44330 42913
" />
<path d="M46220 42125
L46220 42913
" />
<path d="M46220 36614
L44330 36614
" />
<path d="M46220 35826
L44330 35826
" />
<path d="M46220 36614
L46220 35826
" />
<path d="M44330 36614
L44330 35826
" />
<path d="M32519 37401
L34409 37401
" />
<path d="M32519 38188
L34409 38188
" />
<path d="M32519 37401
L32519 38188
" />
<path d="M34409 37401
L34409 38188
" />
<path d="M34409 42913
L32519 42913
" />
<path d="M34409 42125
L32519 42125
" />
<path d="M34409 42913
L34409 42125
" />
<path d="M32519 42913
L32519 42125
" />
<path d="M32519 35826
L34409 35826
" />
<path d="M32519 36614
L34409 36614
" />
<path d="M32519 35826
L32519 36614
" />
<path d="M34409 35826
L34409 36614
" />
<path d="M32519 38976
L34409 38976
" />
<path d="M32519 39763
L34409 39763
" />
<path d="M32519 38976
L32519 39763
" />
<path d="M34409 38976
L34409 39763
" />
<path d="M38425 43700
L40314 43700
" />
<path d="M38425 44488
L40314 44488
" />
<path d="M38425 43700
L38425 44488
" />
<path d="M40314 43700
L40314 44488
" />
</g> 
</svg>
