<?xml version="1.0" standalone="no"?>
 <!DOCTYPE svg PUBLIC "-//W3C//DTD SVG 1.1//EN" 
 "http://www.w3.org/Graphics/SVG/1.1/DTD/svg11.dtd"> 
<svg xmlns="http://www.w3.org/2000/svg" version="1.1" 
    width="29.7002cm" height="21.0007cm" viewBox="0 0 116930 82680 ">
<title>SVG Picture created as kostka-B.SilkS.svg date 2016/12/12 17:40:44 </title>
  <desc>Picture generated by PCBNEW </desc>
<g style="fill:#000000; fill-opacity:1;stroke:#000000; stroke-opacity:1;
stroke-linecap:round; stroke-linejoin:round; "
 transform="translate(0 0) scale(1 1)">
</g>
<g style="fill:#000000; fill-opacity:0.0; 
stroke:#000000; stroke-width:-0.000393701; stroke-opacity:1; 
stroke-linecap:round; stroke-linejoin:round;">
</g>
<g style="fill:#000000; fill-opacity:0.0; 
stroke:#000000; stroke-width:59.0551; stroke-opacity:1; 
stroke-linecap:round; stroke-linejoin:round;">
<path d="M71654 47244
L83465 47244
" />
<path d="M85433 33464
L85433 45275
" />
<path d="M71654 31496
L83465 31496
" />
<path d="M69685 45275
L69685 33464
" />
<path d="M69685.9 45275.6 A1968.5 1968.5 0.0 0 0 71654.4 47244.1 " />
<path d="M83465.4 47244.1 A1968.5 1968.5 0.0 0 0 85433.9 45275.6 " />
<path d="M85433.9 33464.6 A1968.5 1968.5 0.0 0 0 83465.4 31496.1 " />
<path d="M71654.4 31496.1 A1968.5 1968.5 0.0 0 0 69685.9 33464.6 " />
<path d="M77034 46338
L77091 46356
L77184 46356
L77222 46338
L77241 46319
L77259 46281
L77259 46244
L77241 46206
L77222 46188
L77184 46169
L77109 46150
L77072 46131
L77053 46113
L77034 46075
L77034 46038
L77053 46000
L77072 45981
L77109 45963
L77203 45963
L77259 45981
" />
<path d="M77391 45963
L77484 46356
L77559 46075
L77634 46356
L77728 45963
" />
<path d="M77859 46000
L77878 45981
L77916 45963
L78009 45963
L78047 45981
L78066 46000
L78084 46038
L78084 46075
L78066 46131
L77841 46356
L78084 46356
" />
<path d="M77809 47978
L77809 47728
" />
<path d="M77059 47978
L77809 47978
" />
<path d="M77059 47728
L77059 47978
" />
<path d="M75559 47478
L77059 47728
" />
<path d="M79309 47478
L77809 47728
" />
<path d="M79309 47228
L79309 47478
" />
<path d="M75559 47228
L75559 47478
" />
<path d="M79559 47228
L75559 47228
" />
<path d="M75559 45578
L79559 45578
" />
<path d="M78559 45078
L78559 45578
" />
<path d="M77559 45078
L77559 45578
" />
<path d="M76559 45078
L76559 45578
" />
<path d="M79559 45578
L79559 47228
" />
<path d="M75559 45578
L75559 47228
" />
</g> 
</svg>
