<?xml version="1.0" standalone="no"?>
 <!DOCTYPE svg PUBLIC "-//W3C//DTD SVG 1.1//EN" 
 "http://www.w3.org/Graphics/SVG/1.1/DTD/svg11.dtd"> 
<svg xmlns="http://www.w3.org/2000/svg" version="1.1" 
    width="29.7002cm" height="21.0007cm" viewBox="0 0 116930 82680 ">
<title>SVG Picture created as kostka-F.SilkS.svg date 2016/12/12 17:30:46 </title>
  <desc>Picture generated by PCBNEW </desc>
<g style="fill:#000000; fill-opacity:1;stroke:#000000; stroke-opacity:1;
stroke-linecap:round; stroke-linejoin:round; "
 transform="translate(0 0) scale(1 1)">
</g>
<g style="fill:#000000; fill-opacity:0.0; 
stroke:#000000; stroke-width:-0.000393701; stroke-opacity:1; 
stroke-linecap:round; stroke-linejoin:round;">
</g>
<g style="fill:#000000; fill-opacity:0.0; 
stroke:#000000; stroke-width:59.0551; stroke-opacity:1; 
stroke-linecap:round; stroke-linejoin:round;">
<path d="M45275 47244
L33464 47244
" />
<path d="M31496 33464
L31496 45275
" />
<path d="M45275 31496
L33464 31496
" />
<path d="M47244 45275
L47244 33464
" />
<path d="M45275.6 47244.1 A1968.5 1968.5 0.0 0 0 47244.1 45275.6 " />
<path d="M31496.1 45275.6 A1968.5 1968.5 0.0 0 0 33464.6 47244.1 " />
<path d="M33464.6 31496.1 A1968.5 1968.5 0.0 0 0 31496.1 33464.6 " />
<path d="M47244.1 33464.6 A1968.5 1968.5 0.0 0 0 45275.6 31496.1 " />
<path d="M38825 37309
L38881 37328
L38975 37328
L39012 37309
L39031 37290
L39050 37253
L39050 37215
L39031 37178
L39012 37159
L38975 37140
L38900 37121
L38862 37103
L38843 37084
L38825 37046
L38825 37009
L38843 36971
L38862 36953
L38900 36934
L38993 36934
L39050 36953
" />
<path d="M39181 36934
L39275 37328
L39350 37046
L39424 37328
L39518 36934
" />
<path d="M39874 37328
L39649 37328
" />
<path d="M39762 37328
L39762 36934
L39724 36990
L39687 37028
L39649 37046
" />
<path d="M32034 41140
L32015 41159
L31959 41178
L31921 41178
L31865 41159
L31828 41121
L31809 41084
L31790 41009
L31790 40953
L31809 40878
L31828 40840
L31865 40803
L31921 40784
L31959 40784
L32015 40803
L32034 40821
" />
<path d="M32409 41178
L32184 41178
" />
<path d="M32296 41178
L32296 40784
L32259 40840
L32221 40878
L32184 40896
" />
<path d="M36548 45061
L36529 45080
L36473 45099
L36436 45099
L36379 45080
L36342 45043
L36323 45005
L36304 44930
L36304 44874
L36323 44799
L36342 44761
L36379 44724
L36436 44705
L36473 44705
L36529 44724
L36548 44743
" />
<path d="M36698 44743
L36717 44724
L36754 44705
L36848 44705
L36886 44724
L36904 44743
L36923 44780
L36923 44818
L36904 44874
L36679 45099
L36923 45099
" />
<path d="M43016 40335
L43016 39941
L43110 39941
L43166 39960
L43203 39998
L43222 40035
L43241 40110
L43241 40166
L43222 40241
L43203 40279
L43166 40316
L43110 40335
L43016 40335
" />
<path d="M43616 40335
L43391 40335
" />
<path d="M43503 40335
L43503 39941
L43466 39998
L43428 40035
L43391 40054
" />
<path d="M43016 43485
L43016 43091
L43110 43091
L43166 43110
L43203 43147
L43222 43185
L43241 43260
L43241 43316
L43222 43391
L43203 43428
L43166 43466
L43110 43485
L43016 43485
" />
<path d="M43391 43128
L43410 43110
L43447 43091
L43541 43091
L43578 43110
L43597 43128
L43616 43166
L43616 43203
L43597 43260
L43372 43485
L43616 43485
" />
<path d="M43016 37185
L43016 36792
L43110 36792
L43166 36811
L43203 36848
L43222 36886
L43241 36961
L43241 37017
L43222 37092
L43203 37129
L43166 37167
L43110 37185
L43016 37185
" />
<path d="M43372 36792
L43616 36792
L43485 36942
L43541 36942
L43578 36961
L43597 36979
L43616 37017
L43616 37110
L43597 37148
L43578 37167
L43541 37185
L43428 37185
L43391 37167
L43372 37148
" />
<path d="M39079 38957
L39079 38563
L39173 38563
L39229 38582
L39266 38620
L39285 38657
L39304 38732
L39304 38788
L39285 38863
L39266 38901
L39229 38938
L39173 38957
L39079 38957
" />
<path d="M39641 38695
L39641 38957
" />
<path d="M39548 38545
L39454 38826
L39698 38826
" />
<path d="M35142 43485
L35142 43091
L35236 43091
L35292 43110
L35329 43147
L35348 43185
L35367 43260
L35367 43316
L35348 43391
L35329 43428
L35292 43466
L35236 43485
L35142 43485
" />
<path d="M35723 43091
L35536 43091
L35517 43278
L35536 43260
L35573 43241
L35667 43241
L35704 43260
L35723 43278
L35742 43316
L35742 43410
L35723 43447
L35704 43466
L35667 43485
L35573 43485
L35536 43466
L35517 43447
" />
<path d="M35142 37185
L35142 36792
L35236 36792
L35292 36811
L35329 36848
L35348 36886
L35367 36961
L35367 37017
L35348 37092
L35329 37129
L35292 37167
L35236 37185
L35142 37185
" />
<path d="M35704 36792
L35629 36792
L35592 36811
L35573 36829
L35536 36886
L35517 36961
L35517 37110
L35536 37148
L35554 37167
L35592 37185
L35667 37185
L35704 37167
L35723 37148
L35742 37110
L35742 37017
L35723 36979
L35704 36961
L35667 36942
L35592 36942
L35554 36961
L35536 36979
L35517 37017
" />
<path d="M35142 40335
L35142 39941
L35236 39941
L35292 39960
L35329 39998
L35348 40035
L35367 40110
L35367 40166
L35348 40241
L35329 40279
L35292 40316
L35236 40335
L35142 40335
" />
<path d="M35498 39941
L35761 39941
L35592 40335
" />
<path d="M36815 41528
L36815 41134
" />
<path d="M37228 41490
L37209 41509
L37153 41528
L37115 41528
L37059 41509
L37021 41471
L37003 41434
L36984 41359
L36984 41303
L37003 41228
L37021 41190
L37059 41153
L37115 41134
L37153 41134
L37209 41153
L37228 41171
" />
<path d="M37603 41528
L37378 41528
" />
<path d="M37490 41528
L37490 41134
L37453 41190
L37415 41228
L37378 41246
" />
<path d="M46634 39528
L46503 39340
" />
<path d="M46409 39528
L46409 39134
L46559 39134
L46596 39153
L46615 39171
L46634 39209
L46634 39265
L46615 39303
L46596 39321
L46559 39340
L46409 39340
" />
<path d="M47009 39528
L46784 39528
" />
<path d="M46896 39528
L46896 39134
L46859 39190
L46821 39228
L46784 39246
" />
<path d="M46684 42678
L46553 42490
" />
<path d="M46459 42678
L46459 42284
L46609 42284
L46646 42303
L46665 42321
L46684 42359
L46684 42415
L46665 42453
L46646 42471
L46609 42490
L46459 42490
" />
<path d="M46834 42321
L46853 42303
L46890 42284
L46984 42284
L47021 42303
L47040 42321
L47059 42359
L47059 42396
L47040 42453
L46815 42678
L47059 42678
" />
<path d="M46584 36428
L46453 36240
" />
<path d="M46359 36428
L46359 36034
L46509 36034
L46546 36053
L46565 36071
L46584 36109
L46584 36165
L46565 36203
L46546 36221
L46509 36240
L46359 36240
" />
<path d="M46715 36034
L46959 36034
L46828 36184
L46884 36184
L46921 36203
L46940 36221
L46959 36259
L46959 36353
L46940 36390
L46921 36409
L46884 36428
L46771 36428
L46734 36409
L46715 36390
" />
<path d="M31984 37978
L31853 37790
" />
<path d="M31759 37978
L31759 37584
L31909 37584
L31946 37603
L31965 37621
L31984 37659
L31984 37715
L31965 37753
L31946 37771
L31909 37790
L31759 37790
" />
<path d="M32321 37715
L32321 37978
" />
<path d="M32228 37565
L32134 37846
L32378 37846
" />
<path d="M31984 42678
L31853 42490
" />
<path d="M31759 42678
L31759 42284
L31909 42284
L31946 42303
L31965 42321
L31984 42359
L31984 42415
L31965 42453
L31946 42471
L31909 42490
L31759 42490
" />
<path d="M32340 42284
L32153 42284
L32134 42471
L32153 42453
L32190 42434
L32284 42434
L32321 42453
L32340 42471
L32359 42509
L32359 42603
L32340 42640
L32321 42659
L32284 42678
L32190 42678
L32153 42659
L32134 42640
" />
<path d="M31984 36378
L31853 36190
" />
<path d="M31759 36378
L31759 35984
L31909 35984
L31946 36003
L31965 36021
L31984 36059
L31984 36115
L31965 36153
L31946 36171
L31909 36190
L31759 36190
" />
<path d="M32321 35984
L32246 35984
L32209 36003
L32190 36021
L32153 36078
L32134 36153
L32134 36303
L32153 36340
L32171 36359
L32209 36378
L32284 36378
L32321 36359
L32340 36340
L32359 36303
L32359 36209
L32340 36171
L32321 36153
L32284 36134
L32209 36134
L32171 36153
L32153 36171
L32134 36209
" />
<path d="M32034 39578
L31903 39390
" />
<path d="M31809 39578
L31809 39184
L31959 39184
L31996 39203
L32015 39221
L32034 39259
L32034 39315
L32015 39353
L31996 39371
L31959 39390
L31809 39390
" />
<path d="M32165 39184
L32428 39184
L32259 39578
" />
<path d="M40784 44228
L40653 44040
" />
<path d="M40559 44228
L40559 43834
L40709 43834
L40746 43853
L40765 43871
L40784 43909
L40784 43965
L40765 44003
L40746 44021
L40709 44040
L40559 44040
" />
<path d="M41009 44003
L40971 43984
L40953 43965
L40934 43928
L40934 43909
L40953 43871
L40971 43853
L41009 43834
L41084 43834
L41121 43853
L41140 43871
L41159 43909
L41159 43928
L41140 43965
L41121 43984
L41084 44003
L41009 44003
L40971 44021
L40953 44040
L40934 44078
L40934 44153
L40953 44190
L40971 44209
L41009 44228
L41084 44228
L41121 44209
L41140 44190
L41159 44153
L41159 44078
L41140 44040
L41121 44021
L41084 44003
" />
<path d="M37007 32677
L37007 31889
" />
<path d="M37007 36614
L37007 35826
" />
<path d="M41732 36614
L37007 36614
" />
<path d="M41732 35826
L41732 36614
" />
<path d="M41732 31889
L41732 32677
" />
<path d="M37007 31889
L41732 31889
" />
<circle cx="39370.1" cy="34252" r="1181.1" /> 
<path d="M33267 41279
L33661 41279
" />
<path d="M33661 40610
L33267 40610
" />
<path d="M36417 44429
L36811 44429
" />
<path d="M36811 43759
L36417 43759
" />
<path d="M43740 39153
L42992 39153
" />
<path d="M43740 39586
L42992 39586
" />
<path d="M43385 39370
L43208 39370
" />
<path d="M43405 39468
L43405 39271
" />
<path d="M43405 39370
L43307 39468
" />
<path d="M43307 39468
L43307 39271
" />
<path d="M43307 39271
L43405 39370
" />
<path d="M43740 42303
L42992 42303
" />
<path d="M43740 42736
L42992 42736
" />
<path d="M43385 42519
L43208 42519
" />
<path d="M43405 42618
L43405 42421
" />
<path d="M43405 42519
L43307 42618
" />
<path d="M43307 42618
L43307 42421
" />
<path d="M43307 42421
L43405 42519
" />
<path d="M43740 36003
L42992 36003
" />
<path d="M43740 36437
L42992 36437
" />
<path d="M43385 36220
L43208 36220
" />
<path d="M43405 36318
L43405 36122
" />
<path d="M43405 36220
L43307 36318
" />
<path d="M43307 36318
L43307 36122
" />
<path d="M43307 36122
L43405 36220
" />
<path d="M38937 39586
L39685 39586
" />
<path d="M38937 39153
L39685 39153
" />
<path d="M39291 39370
L39468 39370
" />
<path d="M39271 39271
L39271 39468
" />
<path d="M39271 39370
L39370 39271
" />
<path d="M39370 39271
L39370 39468
" />
<path d="M39370 39468
L39271 39370
" />
<path d="M35000 42736
L35748 42736
" />
<path d="M35000 42303
L35748 42303
" />
<path d="M35354 42519
L35531 42519
" />
<path d="M35334 42421
L35334 42618
" />
<path d="M35334 42519
L35433 42421
" />
<path d="M35433 42421
L35433 42618
" />
<path d="M35433 42618
L35334 42519
" />
<path d="M35000 36437
L35748 36437
" />
<path d="M35000 36003
L35748 36003
" />
<path d="M35354 36220
L35531 36220
" />
<path d="M35334 36122
L35334 36318
" />
<path d="M35334 36220
L35433 36122
" />
<path d="M35433 36122
L35433 36318
" />
<path d="M35433 36318
L35334 36220
" />
<path d="M35000 39586
L35748 39586
" />
<path d="M35000 39153
L35748 39153
" />
<path d="M35354 39370
L35531 39370
" />
<path d="M35334 39271
L35334 39468
" />
<path d="M35334 39370
L35433 39271
" />
<path d="M35433 39271
L35433 39468
" />
<path d="M35433 39468
L35334 39370
" />
<path d="M40187 43533
L40187 43513
" />
<path d="M38553 43533
L38553 43476
" />
<path d="M38553 41505
L38553 41562
" />
<path d="M40187 41505
L40187 41562
" />
<path d="M40187 43533
L38553 43533
" />
<path d="M40187 41505
L38553 41505
" />
<path d="M40187 43513
L40738 43513
" />
<path d="M45039 39025
L45511 39025
" />
<path d="M45511 39714
L45039 39714
" />
<path d="M45511 42864
L45039 42864
" />
<path d="M45039 42175
L45511 42175
" />
<path d="M45039 35875
L45511 35875
" />
<path d="M45511 36564
L45039 36564
" />
<path d="M33700 38139
L33228 38139
" />
<path d="M33228 37450
L33700 37450
" />
<path d="M33228 42175
L33700 42175
" />
<path d="M33700 42864
L33228 42864
" />
<path d="M33700 36564
L33228 36564
" />
<path d="M33228 35875
L33700 35875
" />
<path d="M33700 39714
L33228 39714
" />
<path d="M33228 39025
L33700 39025
" />
<path d="M39606 44438
L39133 44438
" />
<path d="M39133 43750
L39606 43750
" />
</g> 
</svg>
