<?xml version="1.0" standalone="no"?>
 <!DOCTYPE svg PUBLIC "-//W3C//DTD SVG 1.1//EN" 
 "http://www.w3.org/Graphics/SVG/1.1/DTD/svg11.dtd"> 
<svg xmlns="http://www.w3.org/2000/svg" version="1.1" 
    width="29.7002cm" height="21.0007cm" viewBox="0 0 116930 82680 ">
<title>SVG Picture created as kostka-B.Cu.svg date 2016/12/12 17:40:44 </title>
  <desc>Picture generated by PCBNEW </desc>
<g style="fill:#000000; fill-opacity:1;stroke:#000000; stroke-opacity:1;
stroke-linecap:round; stroke-linejoin:round; "
 transform="translate(0 0) scale(1 1)">
</g>
<g style="fill:#000000; fill-opacity:0.0; 
stroke:#000000; stroke-width:-0.000393701; stroke-opacity:1; 
stroke-linecap:round; stroke-linejoin:round;">
</g>
<g style="fill:#000000; fill-opacity:0.0; 
stroke:#000000; stroke-width:59.0551; stroke-opacity:1; 
stroke-linecap:round; stroke-linejoin:round;">
<path d="M71654 47244
L83465 47244
" />
<path d="M85433 33464
L85433 45275
" />
<path d="M71654 31496
L83465 31496
" />
<path d="M69685 45275
L69685 33464
" />
<path d="M69685.9 45275.6 A1968.5 1968.5 0.0 0 0 71654.4 47244.1 " />
<path d="M83465.4 47244.1 A1968.5 1968.5 0.0 0 0 85433.9 45275.6 " />
<path d="M85433.9 33464.6 A1968.5 1968.5 0.0 0 0 83465.4 31496.1 " />
<path d="M71654.4 31496.1 A1968.5 1968.5 0.0 0 0 69685.9 33464.6 " />
</g>
<g style="fill:#000000; fill-opacity:1.0; 
stroke:#000000; stroke-width:3.93701; stroke-opacity:1; 
stroke-linecap:round; stroke-linejoin:round;">
<polyline style="fill-rule:evenodd;"
points="77173,34478
77169,34478
77165,34478
77162,34478
77161,34477
77152,34475
77144,34473
77137,34470
77131,34466
77126,34461
77121,34456
77117,34451
77114,34446
77111,34440
77109,34433
77107,34426
77105,34417
77103,34407
77102,34397
77100,34385
77099,34373
77099,34359
77098,34345
77098,34340
77098,34338
77098,34336
77098,34335
77098,34333
77098,34332
77098,34330
77098,34328
77098,34326
77098,34324
77098,34322
77098,34319
77098,34316
77099,34313
77099,34309
77099,34305
77099,34301
77099,34296
77099,34291
77100,34285
77100,34278
77100,34271
77101,34264
77101,34255
77101,34246
77102,34236
77102,34226
77103,34214
77103,34202
77104,34189
77105,34175
77105,34160
77106,34153
77106,34140
77107,34127
77108,34114
77108,34101
77109,34089
77109,34077
77110,34066
77110,34054
77111,34044
77111,34033
77112,34024
77112,34014
77113,34006
77113,33998
77113,33991
77114,33984
77114,33979
77114,33974
77114,33970
77114,33967
77114,33965
77115,33965
77118,33901
77122,33838
77127,33775
77132,33713
77139,33651
77145,33589
77152,33535
77157,33493
77163,33452
77169,33412
77176,33373
77183,33335
77191,33298
77199,33261
77207,33225
77216,33189
77226,33155
77236,33121
77240,33107
77247,33085
77254,33064
77261,33043
77268,33024
77276,33006
77283,32989
77291,32973
77298,32957
77306,32943
77314,32930
77321,32918
77329,32906
77337,32896
77340,32893
77343,32889
77347,32885
77351,32881
77355,32877
77358,32874
77361,32872
77371,32863
77381,32855
77392,32848
77403,32841
77414,32836
77425,32831
77431,32829
77442,32826
77453,32824
77464,32822
77476,32821
77488,32820
77500,32820
77510,32821
77528,32822
77545,32825
77563,32828
77580,32833
77597,32838
77614,32845
77631,32852
77641,32857
77644,32859
77648,32860
77651,32862
77653,32863
77656,32865
77659,32867
77662,32868
77665,32870
77668,32873
77672,32875
77677,32878
77680,32880
77696,32891
77711,32903
77726,32915
77740,32929
77754,32943
77767,32958
77780,32973
77792,32990
77798,32998
77806,33010
77814,33023
77820,33035
77826,33046
77831,33058
77835,33068
77838,33079
77840,33089
77841,33097
77841,33102
77841,33107
77841,33113
77841,33119
77841,33125
77840,33131
77840,33137
77839,33142
77838,33144
77836,33154
77834,33163
77831,33171
77827,33178
77823,33185
77819,33191
77814,33196
77808,33200
77804,33203
77799,33205
77794,33207
77788,33208
77782,33208
77777,33207
77773,33206
77769,33204
77766,33203
77763,33201
77760,33198
77759,33197
77757,33194
77754,33192
77753,33189
77751,33186
77748,33183
77746,33179
77745,33177
77736,33161
77726,33145
77716,33131
77705,33117
77694,33105
77683,33093
77671,33082
77659,33072
77646,33063
77633,33055
77620,33047
77606,33041
77604,33040
77591,33035
77577,33031
77563,33027
77548,33024
77534,33022
77519,33020
77505,33020
77498,33020
77493,33020
77490,33020
77487,33020
77484,33021
77482,33021
77479,33022
77477,33024
77475,33024
77469,33028
77462,33032
77456,33038
77449,33045
77443,33052
77436,33061
77430,33070
77423,33081
77417,33093
77411,33105
77404,33119
77398,33133
77392,33149
77385,33166
77379,33183
77377,33189
77368,33217
77359,33247
77351,33277
77343,33308
77336,33340
77329,33373
77323,33406
77317,33441
77311,33476
77306,33512
77302,33549
77298,33587
77294,33625
77292,33656
77291,33662
77291,33667
77291,33673
77290,33679
77290,33684
77290,33689
77289,33693
77289,33697
77289,33700
77289,33703
77289,33705
77289,33706
77289,33706
77289,33706
77290,33705
77291,33704
77293,33702
77295,33699
77296,33698
77314,33679
77331,33660
77348,33642
77364,33625
77380,33609
77396,33594
77411,33580
77426,33566
77441,33554
77455,33542
77469,33531
77483,33521
77496,33512
77509,33504
77522,33497
77534,33490
77546,33484
77558,33479
77560,33479
77570,33475
77579,33473
77589,33471
77599,33469
77608,33469
77616,33469
77618,33469
77628,33470
77638,33472
77648,33475
77657,33479
77666,33484
77674,33489
77683,33496
77684,33497
77691,33504
77698,33511
77705,33520
77712,33529
77718,33539
77724,33550
77730,33562
77735,33574
77740,33587
77745,33600
77749,33614
77753,33628
77753,33629
77756,33641
77759,33653
77761,33665
77763,33677
77764,33690
77766,33703
77767,33717
77767,33731
77768,33745
77768,33760
77768,33776
77767,33792
77766,33809
77765,33827
77764,33846
77762,33865
77760,33885
77759,33893
77757,33908
77755,33925
77753,33942
77751,33960
77749,33978
77746,33996
77743,34015
77740,34034
77737,34053
77734,34072
77731,34091
77728,34110
77725,34129
77721,34147
77718,34166
77715,34183
77711,34201
77708,34218
77705,34234
77701,34250
77698,34265
77695,34279
77692,34293
77689,34304
77686,34315
77683,34326
77680,34335
77678,34344
77675,34352
77673,34360
77670,34366
77667,34373
77665,34378
77662,34384
77659,34388
77656,34393
77653,34397
77650,34401
77644,34407
77637,34413
77630,34418
77622,34423
77614,34426
77605,34429
77603,34429
77599,34430
77594,34431
77589,34431
77584,34432
77579,34432
77575,34432
77571,34431
77568,34431
77562,34429
77556,34426
77551,34423
77546,34419
77541,34413
77541,34413
77537,34407
77534,34402
77530,34395
77527,34388
77524,34380
77521,34371
77518,34363
77516,34354
77515,34347
77514,34342
77513,34337
77512,34332
77512,34326
77511,34321
77511,34316
77511,34311
77511,34306
77511,34302
77511,34300
77511,34299
77511,34296
77512,34292
77513,34288
77514,34283
77516,34277
77518,34271
77520,34264
77522,34256
77525,34247
77527,34238
77531,34228
77534,34216
77538,34204
77542,34192
77546,34178
77551,34163
77556,34148
77560,34135
77564,34123
77567,34112
77570,34101
77573,34091
77576,34081
77579,34072
77581,34063
77584,34054
77586,34044
77589,34035
77590,34029
77595,34008
77600,33987
77604,33967
77607,33948
77610,33928
77613,33909
77615,33889
77617,33870
77618,33858
77618,33855
77618,33852
77618,33847
77618,33842
77618,33837
77618,33831
77618,33825
77618,33819
77618,33813
77618,33807
77618,33801
77618,33796
77618,33791
77618,33787
77618,33784
77618,33782
77617,33771
77615,33760
77614,33750
77613,33741
77611,33733
77609,33725
77606,33718
77604,33711
77601,33705
77601,33704
77598,33698
77595,33693
77592,33689
77589,33686
77586,33684
77584,33682
77583,33682
77582,33681
77580,33681
77579,33681
77576,33681
77576,33681
77568,33681
77560,33683
77552,33685
77543,33688
77534,33691
77525,33695
77515,33700
77505,33706
77495,33712
77485,33719
77475,33726
77468,33731
77459,33739
77449,33748
77438,33758
77427,33768
77416,33780
77405,33792
77393,33804
77382,33817
77372,33829
77362,33840
77354,33850
77346,33860
77339,33869
77332,33878
77326,33886
77321,33894
77317,33902
77313,33909
77309,33915
77309,33916
77304,33927
77299,33939
77295,33951
77291,33964
77287,33977
77284,33991
77281,34006
77279,34020
77277,34035
77277,34035
77276,34043
77275,34051
77274,34059
77274,34067
77273,34076
77272,34086
77271,34095
77271,34106
77270,34116
77270,34128
77269,34140
77268,34152
77268,34166
77267,34180
77266,34195
77266,34210
77265,34227
77265,34245
77264,34263
77264,34269
77263,34284
77263,34298
77262,34311
77262,34324
77261,34335
77261,34345
77260,34355
77260,34364
77259,34372
77259,34379
77258,34386
77258,34391
77257,34396
77257,34398
77255,34408
77253,34417
77249,34426
77245,34436
77239,34445
77233,34453
77232,34454
77227,34460
77221,34466
77214,34470
77207,34473
77200,34476
77195,34477
77193,34478
77190,34478
77186,34478
77182,34478
77178,34478
77173,34478
" /> 
<polyline style="fill-rule:evenodd;"
points="75537,34478
75528,34477
75520,34475
75513,34473
75506,34470
75499,34466
75494,34461
75489,34456
75486,34453
75483,34449
75481,34443
75478,34437
75476,34431
75474,34423
75473,34415
75472,34412
75471,34406
75470,34399
75469,34393
75469,34386
75468,34379
75468,34371
75467,34363
75467,34354
75467,34344
75466,34326
75474,34163
75474,34146
75475,34131
75476,34116
75476,34102
75477,34089
75477,34077
75478,34066
75478,34055
75479,34045
75479,34036
75480,34027
75480,34019
75480,34012
75481,34005
75481,33999
75481,33993
75482,33988
75482,33982
75482,33978
75482,33973
75483,33969
75483,33965
75483,33962
75483,33958
75483,33955
75483,33952
75484,33949
75484,33946
75484,33943
75484,33940
75484,33936
75484,33933
75485,33932
75488,33871
75492,33810
75497,33750
75503,33691
75509,33632
75515,33573
75520,33532
75526,33491
75531,33451
75538,33412
75544,33373
75551,33336
75559,33299
75567,33262
75575,33227
75584,33192
75593,33157
75603,33124
75608,33107
75615,33085
75622,33064
75629,33044
75636,33025
75644,33007
75651,32989
75658,32973
75666,32958
75674,32944
75681,32931
75689,32918
75697,32907
75698,32905
75704,32898
75710,32891
75716,32884
75723,32877
75729,32871
75732,32868
75743,32859
75755,32851
75766,32844
75778,32838
75790,32833
75802,32828
75815,32825
75829,32822
75837,32821
75840,32821
75844,32821
75848,32821
75853,32820
75858,32820
75863,32820
75868,32820
75872,32820
75876,32820
75878,32821
75896,32822
75913,32825
75930,32828
75947,32832
75963,32837
75980,32844
75997,32851
76008,32856
76012,32858
76016,32861
76021,32863
76025,32866
76030,32868
76033,32870
76035,32872
76037,32873
76039,32874
76041,32876
76044,32877
76047,32879
76048,32880
76063,32890
76078,32902
76092,32914
76106,32927
76120,32941
76133,32955
76140,32963
76148,32973
76156,32984
76164,32995
76171,33006
76178,33016
76184,33027
76190,33038
76195,33048
76199,33058
76202,33066
76205,33074
76207,33082
76208,33090
76209,33098
76210,33106
76210,33115
76209,33117
76209,33129
76207,33140
76205,33150
76203,33160
76200,33168
76197,33175
76193,33182
76189,33189
76184,33194
76179,33199
76173,33202
76167,33205
76163,33207
76159,33207
76155,33208
76151,33208
76148,33207
76144,33207
76144,33207
76139,33205
76134,33203
76130,33199
76126,33195
76124,33193
76122,33191
76121,33189
76119,33187
76117,33184
76115,33181
76114,33178
76105,33162
76096,33148
76086,33134
76076,33121
76066,33109
76056,33098
76045,33087
76034,33078
76022,33068
76009,33059
75995,33051
75981,33044
75967,33038
75952,33033
75937,33028
75922,33025
75905,33022
75889,33020
75886,33020
75882,33020
75877,33020
75873,33020
75869,33020
75865,33020
75861,33020
75858,33020
75856,33020
75855,33020
75849,33022
75843,33024
75837,33027
75832,33031
75826,33036
75821,33040
75815,33047
75809,33054
75803,33062
75798,33071
75792,33081
75786,33091
75780,33103
75774,33115
75768,33128
75762,33143
75757,33158
75755,33163
75749,33178
75744,33195
75738,33212
75733,33230
75727,33248
75722,33267
75717,33286
75714,33296
75708,33324
75701,33353
75695,33383
75689,33414
75684,33445
75679,33477
75675,33510
75671,33543
75667,33577
75664,33611
75661,33646
75658,33681
75658,33685
75658,33689
75658,33693
75657,33696
75657,33699
75657,33702
75657,33703
75657,33704
75657,33705
75657,33706
75657,33706
75657,33706
75658,33705
75660,33703
75662,33701
75664,33699
75666,33696
75668,33695
75681,33680
75695,33665
75708,33650
75722,33636
75735,33623
75748,33610
75761,33597
75773,33586
75785,33575
75800,33562
75815,33549
75829,33537
75844,33527
75857,33517
75871,33508
75884,33500
75897,33493
75909,33487
75921,33481
75932,33477
75944,33474
75955,33471
75963,33470
75967,33469
75973,33469
75978,33469
75983,33469
75988,33469
75993,33470
75994,33470
76004,33472
76014,33474
76023,33478
76033,33483
76041,33488
76050,33495
76058,33502
76066,33510
76073,33520
76080,33529
76085,33538
76091,33548
76096,33558
76101,33569
76106,33581
76111,33593
76115,33605
76118,33614
76121,33628
76125,33641
76127,33655
76130,33669
76132,33684
76134,33700
76135,33716
76135,33717
76135,33720
76135,33724
76136,33729
76136,33734
76136,33740
76136,33746
76136,33752
76136,33759
76136,33765
76136,33771
76136,33776
76136,33781
76136,33786
76135,33803
76134,33821
76132,33840
76131,33860
76129,33880
76126,33902
76124,33924
76121,33947
76118,33971
76114,33995
76111,34021
76107,34047
76102,34075
76100,34088
76096,34110
76092,34131
76089,34152
76085,34172
76081,34192
76078,34210
76074,34228
76071,34245
76067,34261
76064,34276
76060,34290
76057,34304
76054,34316
76051,34328
76048,34339
76045,34348
76042,34357
76039,34365
76038,34366
76034,34376
76029,34386
76023,34394
76017,34402
76011,34408
76004,34414
75996,34419
75988,34424
75985,34425
75979,34427
75972,34429
75966,34430
75959,34431
75952,34432
75946,34432
75940,34431
75935,34430
75933,34430
75927,34428
75922,34424
75916,34420
75911,34415
75907,34409
75902,34402
75898,34394
75894,34385
75894,34385
75889,34371
75885,34358
75882,34344
75880,34329
75879,34315
75879,34309
75879,34305
75879,34302
75879,34299
75879,34298
75880,34296
75880,34294
75880,34293
75880,34292
75882,34287
75883,34281
75885,34276
75886,34270
75888,34263
75890,34256
75892,34249
75895,34241
75897,34233
75900,34224
75903,34214
75906,34204
75910,34192
75914,34180
75918,34168
75922,34154
75923,34150
75925,34144
75927,34138
75929,34133
75931,34127
75932,34122
75934,34117
75935,34113
75936,34110
75937,34107
75945,34080
75952,34053
75959,34027
75965,34001
75970,33976
75975,33951
75979,33927
75982,33904
75984,33881
75986,33859
75987,33837
75987,33817
75987,33802
75986,33789
75985,33777
75984,33767
75983,33757
75982,33747
75980,33738
75978,33730
75976,33723
75974,33715
75971,33709
75969,33704
75966,33699
75963,33694
75961,33690
75958,33687
75957,33686
75955,33684
75953,33682
75950,33681
75948,33681
75945,33681
75944,33681
75936,33681
75928,33683
75919,33685
75910,33688
75901,33692
75891,33696
75881,33701
75871,33707
75860,33714
75859,33715
75850,33721
75840,33728
75831,33736
75821,33745
75810,33754
75800,33764
75789,33775
75777,33787
75766,33800
75756,33811
75746,33822
75736,33834
75727,33844
75718,33855
75711,33865
75703,33874
75697,33883
75691,33891
75686,33899
75684,33903
75679,33911
75675,33921
75670,33931
75666,33942
75662,33954
75659,33966
75655,33978
75652,33991
75650,34004
75647,34017
75646,34029
75645,34039
75643,34050
75642,34061
75641,34073
75640,34087
75639,34100
75638,34115
75638,34131
75637,34147
75636,34165
75635,34183
75634,34202
75634,34223
75633,34238
75633,34243
75633,34249
75632,34254
75632,34259
75632,34264
75632,34268
75632,34272
75632,34274
75632,34276
75631,34290
75631,34303
75630,34316
75630,34327
75629,34338
75629,34347
75628,34356
75628,34365
75627,34372
75627,34379
75626,34385
75626,34390
75625,34395
75625,34399
75624,34403
75624,34406
75624,34406
75621,34415
75618,34424
75614,34433
75610,34441
75604,34449
75602,34453
75596,34459
75590,34465
75584,34469
75577,34473
75570,34475
75569,34476
75565,34477
75561,34478
75557,34478
75552,34478
75547,34478
75537,34478
" /> 
<polyline style="fill-rule:evenodd;"
points="78755,35079
78734,35079
78713,35079
78693,35079
78672,35079
78652,35078
78631,35078
78611,35078
78591,35078
78571,35078
78552,35078
78533,35078
78514,35078
78495,35078
78477,35078
78459,35078
78442,35078
78425,35078
78408,35078
78392,35078
78376,35078
78361,35078
78347,35078
78333,35078
78319,35078
78306,35078
78294,35078
78283,35078
78272,35078
78262,35078
78252,35078
78244,35078
78236,35078
78229,35078
78223,35078
78218,35078
78213,35078
78210,35078
78207,35078
78206,35078
78205,35078
78201,35078
78197,35077
78193,35077
78190,35077
78188,35077
78170,35074
78153,35071
78136,35067
78119,35062
78102,35056
78086,35049
78070,35042
78055,35034
78041,35025
78026,35015
78013,35004
78000,34993
77987,34981
77975,34969
77964,34956
77954,34942
77944,34928
77935,34913
77927,34898
77919,34882
77912,34866
77907,34850
77902,34833
77897,34815
77894,34797
77894,34795
77893,34791
77893,34787
77892,34782
77892,34778
77892,34777
77892,34777
77892,34776
77892,34776
77891,34775
77891,34774
77891,34773
77891,34772
77891,34771
77891,34770
77891,34768
77891,34766
77891,34764
77891,34762
77891,34759
77891,34756
77891,34753
77891,34750
77891,34746
77891,34742
77891,34737
77891,34732
77891,34727
77891,34721
77891,34715
77891,34709
77891,34702
77891,34694
77891,34686
77891,34677
77891,34668
77891,34659
77891,34648
77891,34638
77891,34626
77891,34614
77891,34601
77891,34588
77891,34574
77891,34559
77891,34544
77891,34527
77891,34511
77891,34493
77891,34474
77891,34455
77891,34435
77891,34414
77891,34392
77891,34370
77891,34346
77891,34322
77891,34296
77891,34270
77891,34243
77891,34215
77891,34190
77891,34160
77891,34132
77891,34105
77891,34079
77891,34054
77891,34030
77891,34006
77891,33984
77891,33962
77891,33941
77891,33921
77891,33902
77891,33884
77891,33866
77891,33850
77891,33833
77891,33818
77891,33803
77891,33790
77891,33776
77891,33764
77891,33752
77891,33740
77891,33729
77891,33719
77891,33710
77891,33701
77891,33692
77891,33684
77891,33677
77891,33670
77891,33663
77891,33657
77891,33651
77891,33646
77891,33641
77891,33637
77891,33633
77891,33629
77891,33626
77891,33623
77891,33620
77891,33617
77891,33615
77891,33613
77891,33611
77891,33610
77891,33608
77891,33607
77891,33606
77891,33605
77891,33604
77892,33603
77892,33603
77892,33602
77892,33602
77892,33602
77894,33585
77897,33568
77900,33552
77904,33537
77909,33522
77915,33507
77921,33492
77925,33485
77933,33469
77943,33454
77953,33439
77964,33424
77975,33411
77988,33397
78001,33385
78015,33373
78029,33362
78044,33352
78052,33348
78067,33339
78084,33331
78100,33324
78117,33318
78134,33313
78152,33308
78170,33305
78188,33303
78200,33302
78201,33301
78203,33301
78205,33301
78208,33301
78213,33301
78217,33301
78223,33301
78230,33301
78238,33301
78246,33301
78255,33301
78265,33301
78276,33301
78288,33301
78301,33301
78315,33301
78329,33301
78345,33301
78361,33301
78378,33301
78397,33301
78416,33301
78436,33301
78457,33301
78479,33301
78502,33301
78525,33301
78550,33301
78576,33301
78603,33301
78630,33301
78659,33301
78689,33301
78719,33301
78751,33301
78780,33301
78804,33301
78828,33301
78851,33301
78875,33301
78897,33301
78920,33301
78942,33301
78964,33301
78986,33301
79007,33301
79027,33301
79048,33301
79067,33301
79087,33301
79105,33301
79124,33301
79141,33301
79159,33301
79175,33301
79191,33301
79207,33301
79221,33301
79236,33301
79249,33301
79262,33301
79274,33301
79285,33301
79296,33301
79305,33301
79314,33301
79322,33301
79330,33301
79336,33301
79342,33301
79346,33301
79350,33301
79353,33301
79355,33301
79356,33301
79356,33301
79359,33302
79363,33302
79367,33302
79371,33303
79375,33303
79379,33304
79383,33304
79400,33307
79418,33311
79435,33316
79452,33322
79468,33328
79484,33336
79500,33344
79515,33353
79530,33363
79544,33374
79558,33386
79571,33398
79583,33411
79590,33419
79602,33434
79612,33448
79622,33464
79631,33480
79639,33496
79646,33512
79652,33529
79657,33547
79661,33564
79664,33582
79666,33594
79666,33595
79666,33596
79666,33596
79666,33597
79666,33598
79666,33599
79666,33599
79666,33600
79667,33601
79667,33602
79667,33603
79667,33605
79667,33606
79667,33608
79667,33609
79667,33611
79667,33613
79667,33616
79667,33618
79667,33621
79667,33624
79667,33628
79667,33631
79667,33635
79667,33640
79667,33645
79667,33650
79667,33655
79667,33661
79668,33668
79668,33675
79668,33682
79668,33690
79668,33698
79668,33707
79668,33716
79668,33726
79668,33737
79668,33748
79668,33760
79668,33772
79668,33785
79668,33799
79668,33813
79668,33828
79668,33844
79668,33845
79380,33845
79380,33840
79380,33836
79380,33833
79380,33832
79379,33827
79378,33822
79377,33817
79376,33811
79374,33806
79373,33799
79371,33793
79365,33773
79359,33754
79351,33735
79343,33716
79334,33697
79332,33693
79323,33676
79314,33659
79304,33643
79293,33626
79282,33610
79270,33593
79257,33576
79243,33559
79229,33542
79216,33528
79207,33518
79197,33508
79188,33499
79179,33491
79169,33483
79160,33476
79149,33469
79147,33467
79133,33459
79119,33451
79104,33444
79090,33438
79075,33433
79060,33429
79045,33426
79030,33424
79026,33423
79022,33423
79017,33423
79012,33423
79006,33423
79001,33423
78995,33423
78990,33424
78986,33424
78983,33424
78969,33427
78955,33430
78942,33434
78929,33440
78916,33446
78903,33453
78891,33461
78880,33470
78868,33479
78862,33485
78858,33489
78854,33493
78850,33498
78846,33503
78841,33508
78837,33513
78833,33517
78832,33518
78823,33530
78813,33544
78803,33557
78794,33572
78785,33587
78775,33603
78766,33620
78757,33638
78748,33657
78739,33677
78730,33697
78726,33705
78721,33718
78719,33715
78719,33713
78718,33710
78716,33707
78715,33703
78713,33698
78711,33693
78709,33688
78707,33683
78706,33678
78704,33674
78703,33672
78702,33669
78701,33666
78700,33662
78698,33657
78696,33652
78694,33646
78692,33639
78690,33632
78688,33625
78685,33618
78683,33611
78681,33606
78677,33593
78673,33582
78669,33571
78666,33561
78663,33552
78660,33543
78657,33535
78655,33528
78652,33521
78650,33515
78647,33508
78645,33503
78643,33497
78641,33492
78638,33486
78636,33481
78634,33476
78632,33471
78631,33471
78628,33464
78625,33457
78621,33450
78618,33443
78614,33437
78611,33431
78608,33425
78605,33420
78602,33415
78599,33411
78597,33408
78594,33406
78594,33405
78588,33400
78582,33397
78576,33394
78570,33392
78563,33391
78556,33391
78549,33392
78542,33393
78535,33396
78528,33399
78520,33402
78513,33407
78505,33412
78503,33413
78499,33416
78494,33420
78489,33424
78484,33428
78479,33432
78475,33435
78471,33439
78468,33442
78467,33443
78461,33449
78456,33456
78452,33463
78448,33471
78444,33480
78440,33489
78437,33500
78434,33511
78434,33512
78433,33516
78432,33521
78431,33526
78429,33531
78428,33538
78427,33544
78425,33552
78424,33561
78423,33564
78421,33574
78420,33583
78418,33591
78417,33598
78415,33605
78414,33611
78413,33617
78412,33622
78410,33626
78409,33631
78407,33635
78406,33639
78405,33641
78405,33643
78404,33647
78402,33651
78401,33655
78399,33660
78397,33666
78395,33672
78393,33678
78391,33685
78389,33692
78386,33699
78384,33706
78382,33713
78379,33720
78377,33726
78375,33733
78373,33739
78372,33744
78369,33753
78366,33763
78363,33772
78360,33781
78357,33790
78354,33800
78351,33809
78348,33819
78344,33829
78341,33839
78338,33849
78335,33860
78331,33872
78327,33883
78324,33896
78320,33908
78315,33922
78311,33936
78307,33950
78302,33965
78297,33981
78292,33998
78286,34016
78281,34035
78276,34050
78271,34064
78267,34078
78263,34091
78259,34103
78256,34114
78253,34125
78250,34135
78247,34144
78244,34153
78241,34162
78239,34170
78236,34177
78234,34185
78232,34192
78230,34198
78228,34205
78226,34211
78224,34218
78222,34224
78220,34230
78219,34234
78209,34265
78199,34296
78190,34326
78181,34354
78172,34382
78163,34410
78154,34436
78145,34462
78137,34487
78129,34512
78120,34536
78112,34559
78104,34582
78096,34605
78088,34627
78080,34649
78075,34663
78072,34672
78069,34680
78066,34689
78063,34697
78060,34704
78057,34712
78054,34719
78052,34725
78049,34731
78047,34736
78046,34741
78044,34745
78043,34748
78042,34750
78038,34760
78034,34772
78032,34783
78030,34796
78029,34808
78029,34818
78030,34829
78031,34840
78033,34850
78035,34860
78038,34870
78042,34879
78046,34888
78050,34896
78055,34903
78060,34909
78065,34915
78071,34920
78078,34924
78080,34925
78083,34926
78086,34928
78088,34929
78089,34929
78090,34929
78092,34930
78093,34930
78095,34930
78096,34930
78099,34930
78102,34930
78103,34930
78108,34930
78113,34930
78116,34930
78120,34929
78123,34928
78127,34927
78128,34927
78135,34924
78142,34920
78149,34915
78156,34910
78163,34903
78164,34903
78169,34897
78174,34891
78179,34884
78184,34876
78189,34868
78195,34859
78200,34849
78205,34839
78211,34827
78217,34815
78222,34802
78227,34791
78228,34789
78229,34786
78230,34782
78232,34779
78234,34775
78235,34770
78237,34767
78240,34759
78243,34751
78247,34741
78251,34731
78255,34720
78259,34708
78263,34696
78268,34683
78273,34669
78277,34655
78282,34640
78287,34625
78292,34610
78297,34594
78302,34578
78307,34562
78312,34546
78313,34541
78316,34532
78318,34524
78321,34516
78323,34508
78326,34500
78328,34491
78330,34483
78333,34474
78335,34466
78338,34457
78341,34447
78343,34438
78346,34428
78349,34417
78352,34406
78355,34395
78359,34382
78362,34370
78366,34356
78370,34342
78374,34327
78378,34311
78383,34295
78388,34277
78390,34268
78395,34251
78399,34235
78404,34219
78408,34204
78411,34190
78415,34177
78419,34165
78422,34153
78425,34142
78428,34131
78431,34121
78433,34111
78436,34102
78439,34093
78441,34084
78444,34075
78446,34067
78448,34059
78451,34051
78453,34043
78455,34035
78458,34027
78460,34019
78462,34011
78465,34003
78466,34000
78471,33983
78476,33967
78481,33950
78486,33933
78492,33917
78497,33901
78502,33885
78507,33870
78510,33861
78512,33856
78513,33851
78515,33847
78516,33843
78517,33840
78518,33836
78519,33833
78520,33829
78521,33825
78522,33820
78524,33814
78525,33808
78527,33802
78528,33798
78529,33794
78530,33790
78531,33787
78532,33785
78533,33782
78533,33782
78535,33778
78536,33775
78538,33773
78540,33772
78541,33772
78543,33772
78543,33773
78544,33774
78546,33776
78547,33779
78549,33783
78550,33788
78552,33793
78553,33798
78554,33801
78554,33803
78555,33805
78556,33808
78557,33811
78558,33814
78559,33818
78561,33823
78563,33828
78565,33834
78568,33841
78571,33848
78574,33856
78578,33865
78581,33875
78584,33882
78589,33893
78593,33903
78596,33912
78600,33921
78603,33929
78605,33936
78608,33944
78610,33950
78613,33957
78614,33962
78616,33966
78617,33971
78619,33976
78620,33980
78622,33985
78623,33990
78624,33994
78625,33997
78626,34001
78627,34003
78627,34005
78627,34005
78627,34006
78627,34008
78626,34010
78625,34013
78624,34017
78623,34022
78622,34027
78621,34032
78619,34038
78618,34045
78616,34052
78614,34059
78614,34061
78609,34079
78605,34096
78601,34112
78598,34127
78594,34141
78591,34155
78588,34168
78585,34180
78582,34192
78580,34203
78577,34213
78575,34224
78572,34234
78570,34243
78568,34253
78566,34262
78564,34271
78562,34279
78560,34288
78558,34297
78556,34305
78554,34314
78553,34320
78545,34357
78537,34393
78530,34428
78523,34462
78517,34496
78512,34529
78506,34561
78502,34592
78497,34622
78494,34649
78492,34664
78493,34672
78494,34684
78497,34695
78501,34707
78505,34717
78510,34727
78516,34737
78519,34741
78521,34744
78524,34747
78527,34751
78531,34754
78534,34757
78537,34760
78540,34763
78541,34764
78548,34768
78555,34772
78562,34774
78569,34777
78574,34778
78579,34778
78584,34778
78590,34778
78595,34778
78596,34778
78604,34776
78611,34773
78618,34770
78622,34767
78625,34765
78627,34764
78629,34763
78629,34763
78636,34759
78642,34754
78648,34749
78653,34743
78655,34740
78659,34734
78663,34726
78667,34718
78670,34710
78673,34701
78676,34691
78679,34680
78681,34668
78683,34656
78685,34642
78687,34628
78688,34620
78688,34616
78689,34612
78690,34607
78690,34601
78691,34595
78693,34588
78694,34580
78695,34572
78697,34563
78698,34554
78700,34544
78702,34535
78703,34525
78705,34515
78707,34504
78709,34494
78711,34484
78712,34478
78713,34470
78715,34462
78717,34454
78718,34445
78720,34437
78722,34428
78723,34420
78725,34411
78727,34403
78729,34394
78730,34386
78732,34378
78733,34371
78735,34364
78736,34357
78738,34351
78739,34345
78740,34340
78741,34335
78742,34331
78743,34328
78743,34326
78744,34324
78744,34324
78744,34324
78745,34325
78745,34326
78746,34329
78747,34332
78749,34335
78750,34339
78751,34343
78753,34347
78754,34351
78755,34355
78756,34356
78758,34361
78759,34367
78761,34372
78763,34377
78764,34382
78766,34387
78768,34393
78769,34398
78771,34404
78773,34410
78774,34417
78776,34424
78778,34431
78780,34439
78783,34448
78785,34457
78788,34467
78790,34478
78793,34490
78796,34500
78799,34513
78802,34524
78804,34535
78807,34544
78809,34554
78811,34562
78813,34570
78815,34577
78817,34584
78819,34590
78821,34597
78823,34602
78824,34608
78826,34613
78828,34619
78829,34624
78831,34630
78832,34634
78835,34643
78838,34651
78841,34658
78843,34664
78846,34670
78848,34675
78850,34680
78852,34684
78855,34688
78857,34692
78860,34696
78862,34699
78865,34703
78866,34704
78872,34710
78879,34715
78886,34720
78893,34724
78901,34727
78909,34729
78911,34729
78913,34729
78916,34730
78919,34730
78922,34730
78923,34730
78927,34730
78930,34730
78932,34730
78934,34729
78935,34729
78937,34729
78938,34729
78946,34726
78954,34723
78961,34718
78968,34713
78974,34707
78980,34700
78986,34693
78991,34684
78991,34683
78992,34681
78994,34678
78995,34676
78996,34673
78997,34670
78998,34667
78999,34663
79001,34659
79001,34658
79004,34648
79006,34639
79009,34631
79011,34622
79013,34615
79014,34607
79015,34600
79016,34592
79017,34584
79018,34581
79018,34578
79018,34573
79018,34569
79018,34563
79018,34558
79018,34553
79018,34549
79018,34544
79017,34542
79016,34531
79013,34521
79011,34511
79007,34502
79005,34497
79004,34494
79002,34491
79001,34487
78999,34482
78997,34476
78994,34469
78992,34464
78989,34454
78985,34444
78982,34434
78978,34425
78975,34415
78971,34405
78968,34395
78964,34385
78960,34374
78957,34364
78953,34353
78949,34342
78944,34330
78940,34318
78936,34306
78931,34293
78926,34280
78921,34266
78916,34252
78911,34237
78905,34222
78899,34206
78893,34189
78886,34171
78879,34153
78872,34134
78865,34114
78857,34093
78851,34076
78824,34004
78829,33990
78830,33987
78831,33983
78832,33979
78834,33974
78836,33968
78838,33963
78839,33957
78841,33952
78844,33943
78847,33934
78849,33927
78851,33920
78853,33913
78855,33907
78857,33901
78859,33896
78861,33890
78862,33886
78869,33868
78875,33852
78881,33836
78887,33821
78893,33806
78899,33793
78906,33781
78912,33769
78919,33758
78925,33747
78932,33737
78936,33732
78943,33722
78951,33713
78959,33705
78967,33697
78975,33690
78983,33685
78987,33682
78991,33680
78997,33678
79003,33677
79004,33676
79007,33676
79012,33675
79017,33675
79022,33675
79026,33676
79031,33676
79032,33676
79041,33679
79049,33682
79058,33687
79067,33692
79075,33698
79084,33705
79092,33714
79101,33723
79108,33732
79116,33741
79123,33752
79131,33763
79138,33774
79146,33787
79153,33799
79160,33812
79166,33825
79173,33838
79177,33848
79182,33860
79187,33871
79192,33881
79196,33890
79201,33898
79205,33906
79209,33913
79213,33920
79217,33926
79221,33932
79225,33937
79229,33941
79233,33946
79235,33948
79241,33954
79246,33958
79252,33962
79257,33965
79263,33968
79269,33970
79270,33970
79272,33970
79274,33971
79276,33971
79278,33971
79281,33971
79285,33972
79286,33972
79291,33972
79296,33972
79299,33972
79302,33972
79305,33971
79308,33971
79310,33971
79317,33968
79324,33965
79331,33961
79337,33956
79343,33950
79349,33943
79355,33936
79360,33928
79364,33920
79368,33911
79372,33901
79375,33891
79377,33880
79379,33870
79379,33867
79380,33863
79380,33859
79380,33855
79380,33850
79380,33845
79668,33845
79668,33860
79668,33878
79668,33896
79668,33914
79668,33934
79668,33954
79668,33976
79668,33998
79668,34021
79668,34045
79668,34095
79668,34122
79668,34178
79668,34191
79668,34247
79668,34274
79668,34300
79668,34325
79668,34350
79668,34373
79668,34395
79668,34417
79668,34437
79668,34457
79668,34476
79668,34495
79668,34512
79668,34529
79668,34545
79668,34560
79668,34575
79668,34588
79668,34602
79668,34614
79668,34626
79668,34637
79668,34648
79668,34658
79668,34668
79668,34677
79668,34685
79668,34693
79668,34700
79668,34707
79668,34714
79668,34720
79668,34725
79668,34731
79667,34735
79667,34740
79667,34744
79667,34748
79667,34751
79667,34754
79667,34757
79667,34759
79667,34761
79667,34763
79667,34765
79667,34767
79667,34768
79667,34769
79667,34770
79667,34771
79667,34772
79667,34773
79667,34773
79667,34774
79667,34774
79665,34790
79663,34805
79660,34819
79657,34833
79653,34847
79649,34857
79643,34874
79636,34890
79627,34906
79618,34921
79609,34936
79598,34951
79587,34964
79575,34978
79562,34990
79549,35002
79535,35013
79520,35023
79505,35033
79489,35041
79473,35049
79470,35050
79453,35057
79436,35063
79419,35068
79401,35072
79383,35075
79365,35077
79354,35078
79353,35078
79351,35078
79348,35078
79344,35078
79339,35078
79334,35078
79327,35078
79320,35078
79312,35078
79303,35078
79293,35078
79283,35078
79272,35078
79260,35078
79248,35078
79235,35078
79221,35078
79207,35078
79192,35078
79177,35078
79161,35078
79145,35078
79128,35078
79111,35078
79094,35078
79076,35078
79057,35078
79039,35078
79020,35078
79000,35078
78981,35078
78961,35078
78941,35078
78921,35078
78900,35079
78880,35079
78859,35079
78838,35079
78818,35079
78797,35079
78776,35079
78755,35079
" /> 
<polyline style="fill-rule:evenodd;"
points="74852,34501
74851,34500
74850,34498
74849,34496
74848,34494
74847,34491
74846,34489
74846,34488
74842,34478
74839,34468
74837,34457
74835,34446
74835,34441
74834,34437
74834,34432
74833,34428
74833,34423
74833,34418
74833,34413
74833,34409
74833,34406
74833,34403
74834,34394
74835,34385
74837,34377
74840,34369
74844,34361
74849,34353
74854,34345
74860,34337
74867,34330
74873,34324
74879,34319
74884,34315
74889,34313
74893,34311
74896,34310
74899,34309
74902,34309
74903,34309
74906,34310
74910,34311
74914,34313
74918,34315
74924,34319
74925,34319
74929,34322
74933,34325
74937,34327
74939,34329
74942,34331
74944,34332
74946,34333
74948,34334
74950,34334
74951,34335
74953,34335
74954,34336
74955,34336
74957,34336
74958,34336
74961,34336
74964,34336
74975,34335
74986,34333
74997,34330
75008,34327
75020,34322
75032,34316
75044,34310
75057,34302
75069,34294
75078,34287
75088,34280
75097,34272
75105,34265
75113,34257
75120,34249
75127,34242
75133,34234
75136,34229
75142,34219
75147,34209
75152,34199
75155,34189
75158,34179
75161,34168
75161,34167
75162,34155
75163,34144
75163,34133
75161,34122
75159,34111
75156,34101
75151,34091
75146,34081
75141,34072
75136,34065
75131,34059
75125,34052
75118,34045
75110,34037
75101,34030
75094,34023
75089,34019
75083,34014
75078,34010
75072,34006
75066,34001
75059,33996
75052,33991
75044,33985
75037,33980
75024,33972
75013,33964
75002,33956
74992,33948
74982,33941
74974,33934
74965,33927
74957,33921
74949,33914
74942,33907
74935,33901
74928,33894
74926,33892
74917,33883
74909,33874
74902,33866
74895,33857
74889,33849
74883,33840
74878,33832
74873,33823
74870,33816
74863,33801
74857,33786
74852,33770
74848,33754
74845,33738
74843,33721
74842,33704
74842,33687
74842,33684
74842,33668
74844,33652
74847,33637
74850,33622
74854,33608
74859,33593
74865,33579
74870,33569
74878,33555
74886,33541
74896,33528
74907,33514
74918,33501
74931,33489
74944,33477
74958,33465
74974,33453
74990,33442
75007,33431
75010,33429
75030,33418
75049,33408
75069,33399
75090,33390
75110,33383
75131,33377
75152,33371
75174,33367
75196,33363
75219,33360
75241,33358
75246,33358
75250,33358
75253,33358
75258,33358
75263,33358
75267,33358
75272,33358
75277,33358
75281,33358
75285,33358
75289,33358
75291,33358
75292,33358
75304,33360
75315,33362
75325,33365
75335,33368
75344,33372
75352,33377
75359,33383
75366,33390
75372,33397
75378,33405
75382,33413
75387,33422
75390,33433
75391,33439
75393,33443
75394,33449
75395,33455
75395,33460
75396,33462
75396,33466
75396,33470
75396,33475
75396,33480
75396,33485
75396,33489
75396,33494
75396,33497
75396,33498
75395,33509
75392,33520
75389,33531
75386,33541
75381,33550
75375,33559
75371,33565
75365,33572
75359,33579
75352,33585
75345,33589
75338,33593
75331,33596
75324,33598
75323,33598
75319,33598
75316,33598
75312,33598
75309,33598
75305,33597
75301,33596
75297,33595
75293,33593
75287,33591
75281,33589
75275,33585
75273,33585
75267,33581
75261,33579
75256,33577
75251,33575
75247,33574
75242,33573
75238,33572
75234,33571
75232,33571
75229,33571
75226,33571
75222,33571
75217,33571
75213,33571
75208,33571
75204,33571
75200,33571
75197,33572
75195,33572
75179,33574
75164,33577
75149,33580
75133,33584
75118,33589
75102,33595
75097,33597
75083,33603
75070,33609
75058,33615
75047,33622
75037,33629
75033,33632
75029,33635
75025,33639
75021,33643
75018,33646
75014,33650
75011,33654
75007,33658
75005,33662
75002,33665
75001,33668
74999,33671
74999,33673
74999,33673
74999,33677
75000,33682
75002,33686
75004,33692
75006,33697
75009,33702
75012,33707
75013,33710
75019,33718
75026,33726
75033,33735
75042,33744
75052,33753
75062,33762
75074,33771
75086,33781
75100,33790
75103,33793
75109,33797
75114,33800
75118,33803
75122,33806
75125,33808
75128,33810
75131,33812
75134,33814
75137,33816
75140,33818
75143,33821
75143,33821
75161,33834
75177,33846
75192,33859
75207,33871
75220,33883
75232,33894
75244,33905
75255,33916
75264,33927
75273,33938
75281,33948
75287,33958
75289,33961
75294,33969
75298,33977
75303,33987
75307,33997
75311,34007
75315,34017
75318,34027
75321,34037
75321,34039
75324,34052
75327,34064
75328,34077
75330,34089
75331,34102
75331,34115
75331,34126
75331,34133
75331,34138
75330,34144
75330,34148
75330,34153
75329,34158
75329,34163
75328,34166
75326,34186
75322,34205
75318,34224
75312,34243
75306,34262
75298,34280
75290,34298
75281,34315
75270,34332
75264,34341
75261,34346
75256,34348
75255,34348
75253,34349
75251,34350
75247,34351
75243,34352
75238,34354
75232,34355
75226,34357
75219,34359
75211,34362
75203,34364
75195,34367
75186,34369
75177,34372
75167,34375
75157,34378
75147,34381
75145,34382
75039,34414
74946,34458
74936,34462
74928,34466
74919,34470
74911,34474
74903,34478
74895,34481
74888,34485
74882,34488
74876,34490
74870,34493
74866,34495
74861,34497
74858,34499
74855,34500
74854,34501
74852,34501
74852,34502
74852,34501
" /> 
<polyline style="fill-rule:evenodd;"
points="76721,35051
76717,35050
76715,35050
76709,35047
76704,35044
76699,35041
76694,35036
76689,35030
76685,35024
76682,35019
76677,35009
76673,34999
76670,34989
76667,34978
76665,34966
76663,34954
76662,34941
76662,34941
76662,34937
76662,34933
76662,34929
76662,34925
76662,34920
76662,34915
76662,34909
76663,34903
76663,34896
76664,34888
76664,34885
76665,34875
76666,34864
76667,34853
76669,34840
76670,34827
76671,34813
76673,34798
76675,34782
76677,34765
76679,34747
76681,34729
76683,34709
76686,34688
76689,34667
76691,34645
76694,34621
76697,34597
76700,34572
76704,34546
76707,34519
76711,34491
76711,34490
76713,34477
76714,34464
76716,34452
76717,34440
76719,34428
76720,34416
76722,34405
76723,34394
76725,34384
76726,34374
76727,34364
76728,34355
76729,34347
76730,34339
76731,34332
76732,34326
76732,34321
76733,34316
76734,34312
76734,34309
76734,34307
76734,34305
76734,34305
76734,34304
76734,34303
76735,34300
76735,34297
76735,34294
76736,34289
76736,34284
76737,34279
76737,34273
76738,34267
76738,34266
76740,34244
76742,34223
76745,34202
76747,34183
76748,34164
76750,34146
76752,34129
76753,34112
76755,34097
76756,34082
76758,34068
76759,34055
76760,34043
76761,34031
76762,34021
76762,34012
76763,34003
76763,33995
76764,33989
76764,33983
76764,33981
76764,33980
76764,33979
76764,33980
76763,33980
76763,33980
76762,33982
76760,33984
76758,33986
76756,33990
76753,33994
76749,33998
76745,34003
76741,34009
76736,34015
76731,34022
76726,34029
76720,34036
76714,34044
76708,34052
76702,34060
76696,34069
76689,34077
76682,34086
76675,34095
76668,34104
76661,34114
76654,34123
76647,34132
76640,34141
76633,34150
76626,34159
76620,34168
76613,34177
76607,34185
76601,34193
76595,34201
76589,34209
76583,34216
76578,34223
76573,34229
76569,34235
76565,34241
76561,34245
76558,34250
76555,34254
76552,34257
76550,34259
76549,34261
76549,34262
76535,34280
76522,34297
76510,34314
76497,34329
76485,34344
76473,34359
76462,34372
76450,34385
76439,34396
76429,34407
76418,34417
76408,34427
76398,34435
76389,34442
76387,34444
76379,34450
76370,34456
76362,34460
76354,34464
76347,34467
76340,34470
76333,34471
76326,34472
76322,34472
76317,34472
76312,34471
76306,34470
76301,34469
76297,34468
76296,34468
76289,34465
76282,34462
76276,34457
76271,34452
76267,34446
76263,34440
76259,34433
76257,34424
76255,34416
76253,34406
76253,34405
76253,34402
76253,34398
76253,34393
76253,34388
76253,34382
76253,34377
76253,34372
76253,34367
76254,34363
76254,34361
76256,34347
76258,34334
76261,34322
76265,34310
76270,34299
76276,34289
76282,34279
76289,34270
76296,34261
76299,34258
76305,34252
76311,34247
76317,34243
76318,34242
76319,34241
76321,34240
76322,34239
76322,34239
76322,34238
76323,34237
76325,34236
76326,34235
76334,34229
76341,34223
76347,34217
76353,34212
76359,34207
76364,34203
76369,34199
76371,34197
76377,34191
76384,34185
76390,34178
76398,34171
76406,34164
76414,34155
76422,34147
76430,34138
76439,34130
76447,34121
76455,34112
76464,34103
76472,34094
76480,34085
76487,34077
76491,34073
76501,34061
76510,34050
76519,34039
76528,34028
76536,34018
76543,34008
76550,33999
76555,33991
76561,33982
76565,33975
76569,33968
76573,33961
76575,33955
76577,33950
76578,33945
76578,33941
76578,33940
76578,33938
76578,33936
76577,33934
76576,33932
76575,33929
76574,33926
76572,33922
76569,33917
76566,33910
76561,33902
76556,33893
76551,33883
76544,33873
76538,33862
76530,33850
76522,33837
76513,33824
76504,33810
76494,33795
76490,33789
76479,33772
76468,33756
76457,33741
76447,33726
76437,33712
76428,33699
76419,33687
76410,33675
76401,33664
76393,33654
76386,33645
76380,33638
76372,33629
76364,33620
76355,33613
76347,33606
76339,33600
76331,33595
76324,33591
76315,33587
76306,33583
76297,33581
76291,33580
76289,33580
76287,33580
76285,33580
76282,33580
76278,33580
76274,33580
76268,33580
76268,33580
76263,33581
76258,33581
76255,33581
76252,33581
76249,33581
76247,33580
76245,33580
76244,33580
76242,33579
76240,33578
76240,33578
76236,33575
76233,33573
76229,33569
76227,33566
76224,33561
76222,33556
76220,33551
76219,33545
76218,33538
76218,33531
76217,33525
76218,33517
76219,33509
76220,33501
76222,33493
76225,33485
76228,33477
76230,33471
76232,33466
76236,33459
76239,33453
76243,33446
76246,33440
76250,33434
76251,33432
76257,33424
76264,33416
76271,33409
76279,33403
76287,33398
76297,33393
76306,33389
76317,33385
76328,33383
76340,33381
76344,33380
76347,33380
76352,33380
76356,33379
76361,33379
76366,33379
76371,33379
76375,33379
76379,33379
76382,33380
76383,33380
76390,33381
76398,33383
76405,33385
76412,33388
76417,33391
76424,33394
76431,33399
76438,33403
76445,33408
76452,33414
76459,33420
76463,33424
76468,33429
76474,33435
76479,33441
76485,33448
76492,33456
76498,33464
76505,33474
76512,33484
76519,33494
76527,33505
76535,33518
76543,33530
76552,33544
76561,33559
76570,33574
76580,33590
76590,33607
76601,33625
76612,33643
76623,33663
76629,33674
76637,33688
76645,33702
76653,33715
76660,33727
76666,33738
76672,33748
76678,33758
76683,33767
76688,33775
76692,33782
76696,33788
76700,33794
76703,33799
76706,33803
76709,33807
76711,33810
76713,33812
76714,33813
76715,33814
76716,33814
76717,33814
76719,33813
76720,33812
76722,33810
76724,33808
76725,33806
76729,33802
76733,33796
76737,33790
76742,33784
76746,33777
76751,33770
76755,33763
76759,33757
76763,33750
76767,33744
76770,33738
76772,33733
76772,33733
76774,33730
76775,33728
76775,33727
76776,33725
76776,33723
76776,33721
76777,33719
76778,33707
76779,33696
76781,33684
76782,33672
76783,33660
76783,33647
76784,33634
76785,33620
76785,33606
76786,33591
76786,33576
76787,33559
76787,33542
76787,33541
76787,33533
76787,33525
76787,33518
76787,33512
76788,33507
76788,33502
76788,33498
76788,33494
76788,33491
76788,33488
76789,33485
76789,33482
76789,33480
76789,33477
76790,33474
76790,33472
76793,33460
76796,33448
76799,33437
76804,33426
76809,33416
76814,33406
76820,33398
76827,33390
76830,33387
76837,33381
76843,33376
76850,33372
76858,33369
76866,33367
76874,33365
76882,33365
76888,33366
76896,33367
76904,33369
76912,33372
76919,33376
76926,33381
76926,33381
76931,33386
76936,33391
76941,33397
76945,33404
76949,33411
76953,33419
76956,33426
76959,33434
76959,33436
76961,33440
76962,33444
76962,33449
76963,33453
76963,33458
76963,33463
76963,33469
76963,33475
76963,33482
76962,33490
76961,33498
76961,33498
76961,33503
76961,33508
76960,33514
76959,33519
76959,33524
76958,33530
76957,33536
76957,33543
76956,33550
76955,33557
76954,33565
76953,33574
76951,33584
76950,33594
76948,33605
76947,33617
76946,33625
76942,33652
76939,33680
76935,33709
76932,33739
76928,33770
76925,33802
76922,33834
76919,33868
76916,33902
76912,33937
76910,33974
76907,34011
76904,34049
76901,34088
76898,34128
76896,34169
76893,34211
76893,34215
76893,34221
76892,34228
76892,34235
76891,34243
76890,34252
76890,34262
76889,34272
76888,34283
76888,34294
76887,34305
76886,34317
76885,34329
76884,34342
76883,34354
76882,34367
76881,34380
76880,34392
76879,34405
76878,34417
76878,34429
76877,34441
76876,34446
76874,34476
76872,34505
76869,34533
76867,34560
76865,34586
76863,34611
76861,34635
76859,34658
76857,34680
76855,34702
76853,34722
76851,34741
76849,34760
76847,34778
76845,34794
76844,34810
76842,34826
76840,34840
76838,34853
76837,34866
76835,34877
76834,34888
76832,34898
76830,34908
76830,34912
76827,34926
76824,34940
76820,34953
76816,34965
76811,34976
76806,34987
76801,34997
76795,35006
76789,35014
76782,35022
76775,35029
76769,35035
76762,35040
76755,35044
76748,35047
76741,35049
76738,35050
76734,35051
76730,35051
76726,35051
76721,35051
" /> 
<polyline style="fill-rule:evenodd;"
points="74753,34658
74748,34658
74744,34658
74740,34658
74739,34657
74730,34656
74723,34654
74717,34651
74711,34649
74706,34645
74701,34641
74700,34640
74697,34637
74695,34635
74694,34632
74693,34631
74692,34629
74692,34627
74691,34626
74691,34626
74691,34625
74692,34624
74693,34621
74696,34618
74699,34614
74703,34610
74708,34606
74713,34601
74719,34596
74726,34591
74726,34591
74733,34586
74741,34581
74749,34575
74758,34569
74768,34563
74778,34557
74788,34550
74799,34544
74809,34538
74820,34531
74831,34525
74842,34519
74845,34517
74847,34517
74849,34515
74852,34514
74856,34512
74861,34509
74867,34507
74873,34504
74880,34500
74887,34497
74895,34493
74904,34489
74913,34485
74923,34480
74933,34475
74943,34471
74950,34468
75044,34423
75146,34391
75156,34388
75165,34385
75175,34382
75184,34379
75192,34376
75201,34374
75209,34371
75216,34369
75223,34367
75229,34365
75234,34363
75239,34362
75243,34360
75247,34359
75249,34358
75251,34358
75251,34358
75253,34357
75256,34356
75260,34355
75265,34354
75271,34353
75278,34352
75286,34350
75295,34348
75305,34347
75316,34345
75327,34343
75327,34342
75332,34342
75337,34341
75342,34340
75346,34339
75350,34338
75354,34337
75356,34337
75360,34336
75363,34336
75367,34335
75370,34335
75373,34334
75375,34334
75377,34334
75378,34334
75378,34334
75380,34334
75382,34334
75383,34335
75390,34335
75396,34337
75401,34340
75406,34343
75410,34346
75414,34351
75415,34353
75416,34356
75417,34359
75417,34363
75417,34363
75417,34369
75416,34374
75414,34379
75413,34381
75409,34387
75405,34393
75400,34398
75397,34401
75396,34402
75394,34403
75392,34405
75389,34406
75386,34407
75383,34408
75383,34408
75380,34409
75378,34410
75374,34411
75371,34412
75367,34413
75363,34415
75359,34416
75355,34417
75351,34418
75347,34420
75344,34421
75341,34421
75339,34422
75338,34422
75337,34422
75337,34422
75336,34420
75335,34419
75335,34418
75335,34416
75334,34415
75334,34414
75334,34414
75333,34414
75332,34414
75331,34414
75329,34415
75326,34416
75323,34417
75318,34419
75314,34420
75308,34423
75301,34426
75294,34429
75287,34432
75279,34435
75272,34438
75264,34441
75255,34445
75246,34449
75237,34453
75227,34457
75216,34462
75205,34466
75193,34472
75180,34477
75167,34483
75156,34488
75149,34491
75142,34494
75134,34497
75127,34500
75120,34503
75113,34506
75107,34509
75101,34511
75096,34514
75091,34516
75088,34517
75087,34518
75082,34520
75077,34522
75072,34524
75068,34526
75063,34528
75060,34529
75057,34531
75056,34531
75052,34533
75048,34535
75043,34537
75037,34540
75030,34544
75023,34547
75015,34551
75007,34555
74998,34560
74988,34565
74978,34570
74968,34575
74965,34576
74951,34584
74937,34590
74924,34597
74912,34603
74901,34608
74890,34614
74880,34618
74871,34623
74862,34627
74854,34631
74846,34634
74839,34637
74834,34639
74831,34640
74828,34642
74825,34643
74825,34643
74817,34647
74808,34650
74799,34653
74789,34655
74779,34657
74776,34657
74772,34658
74768,34658
74763,34658
74758,34658
74753,34658
" /> 
<polyline style="fill-rule:evenodd;"
points="75076,34804
75061,34801
75047,34797
75033,34793
75020,34788
75007,34781
74994,34774
74993,34774
74987,34770
74982,34767
74977,34764
74972,34760
74967,34756
74961,34752
74956,34747
74949,34742
74943,34737
74936,34731
74928,34724
74920,34717
74915,34712
74909,34708
74905,34704
74900,34700
74897,34696
74893,34693
74890,34690
74886,34688
74883,34685
74879,34682
74876,34679
74871,34675
74869,34674
74866,34671
74862,34668
74859,34665
74856,34663
74854,34661
74853,34660
74852,34659
74851,34658
74851,34658
74852,34659
74854,34660
74855,34660
74856,34662
74858,34662
74859,34663
74859,34663
74859,34663
74859,34663
74860,34663
74860,34662
74861,34662
74862,34661
74864,34661
74866,34660
74868,34659
74871,34658
74874,34656
74878,34654
74882,34653
74887,34650
74893,34648
74899,34645
74906,34642
74913,34638
74922,34634
74931,34630
74941,34625
74943,34625
74950,34621
74959,34617
74968,34613
74977,34609
74987,34604
74997,34600
75007,34595
75017,34591
75026,34586
75035,34582
75044,34578
75046,34578
75100,34553
75223,34503
75233,34499
75243,34494
75254,34490
75263,34486
75273,34482
75282,34479
75290,34475
75298,34472
75306,34469
75313,34466
75320,34463
75325,34461
75331,34459
75335,34457
75339,34455
75342,34454
75344,34453
75345,34453
75346,34453
75346,34453
75347,34454
75347,34456
75348,34459
75349,34461
75354,34477
75358,34491
75362,34505
75365,34519
75367,34532
75369,34544
75370,34556
75371,34560
75371,34564
75371,34568
75371,34574
75371,34579
75371,34585
75371,34590
75370,34595
75370,34600
75370,34603
75367,34616
75364,34629
75360,34642
75356,34654
75350,34667
75343,34679
75341,34683
75339,34686
75337,34688
75336,34691
75334,34692
75332,34694
75330,34696
75327,34697
75324,34699
75324,34700
75319,34703
75314,34705
75308,34708
75303,34710
75297,34712
75290,34714
75283,34717
75275,34719
75266,34721
75256,34723
75256,34723
75247,34725
75239,34727
75231,34728
75225,34730
75219,34732
75213,34734
75208,34735
75203,34737
75199,34740
75194,34742
75189,34745
75184,34748
75179,34751
75174,34755
75168,34759
75164,34763
75159,34766
75155,34769
75152,34771
75149,34773
75147,34775
75145,34777
75143,34778
75140,34779
75139,34781
75129,34786
75120,34791
75111,34795
75102,34799
75092,34802
75087,34803
75081,34805
75076,34804
" /> 
<polyline style="fill-rule:evenodd;"
points="74850,34658
74850,34657
74850,34657
74850,34657
74850,34657
74850,34658
74850,34658
74850,34658
" /> 
</g>
<g style="fill:#000000; fill-opacity:1.0; 
stroke:#000000; stroke-width:0; stroke-opacity:1; 
stroke-linecap:round; stroke-linejoin:round;">
<circle cx="77559.9" cy="39370.1" r="1968.5" /> 
</g>
<g style="fill:#000000; fill-opacity:1.0; 
stroke:#000000; stroke-width:39.3701; stroke-opacity:1; 
stroke-linecap:round; stroke-linejoin:round;">
</g>
<g style="fill:#000000; fill-opacity:1.0; 
stroke:#000000; stroke-width:0; stroke-opacity:1; 
stroke-linecap:round; stroke-linejoin:round;">
<polyline style="fill-rule:evenodd;"
points="76166,44685
76166,45472
76953,45472
76953,44685
76166,44685
" /> 
<circle cx="77559.9" cy="45078.7" r="393.701" /> 
</g>
<g style="fill:#000000; fill-opacity:1.0; 
stroke:#000000; stroke-width:39.3701; stroke-opacity:1; 
stroke-linecap:round; stroke-linejoin:round;">
</g>
<g style="fill:#000000; fill-opacity:1.0; 
stroke:#000000; stroke-width:0; stroke-opacity:1; 
stroke-linecap:round; stroke-linejoin:round;">
<circle cx="78559.9" cy="45078.7" r="393.701" /> 
</g>
<g style="fill:#000000; fill-opacity:1.0; 
stroke:#000000; stroke-width:39.3701; stroke-opacity:1; 
stroke-linecap:round; stroke-linejoin:round;">
</g>
<g style="fill:#000000; fill-opacity:1.0; 
stroke:#000000; stroke-width:0; stroke-opacity:1; 
stroke-linecap:round; stroke-linejoin:round;">
<circle cx="72048.1" cy="33858.3" r="1181.1" /> 
</g>
<g style="fill:#000000; fill-opacity:1.0; 
stroke:#000000; stroke-width:39.3701; stroke-opacity:1; 
stroke-linecap:round; stroke-linejoin:round;">
</g>
<g style="fill:#000000; fill-opacity:1.0; 
stroke:#000000; stroke-width:0; stroke-opacity:1; 
stroke-linecap:round; stroke-linejoin:round;">
<circle cx="83071.7" cy="33858.3" r="1181.1" /> 
</g>
<g style="fill:#000000; fill-opacity:1.0; 
stroke:#000000; stroke-width:39.3701; stroke-opacity:1; 
stroke-linecap:round; stroke-linejoin:round;">
</g>
<g style="fill:#000000; fill-opacity:1.0; 
stroke:#000000; stroke-width:0; stroke-opacity:1; 
stroke-linecap:round; stroke-linejoin:round;">
<circle cx="83071.7" cy="44881.9" r="1181.1" /> 
</g>
<g style="fill:#000000; fill-opacity:1.0; 
stroke:#000000; stroke-width:39.3701; stroke-opacity:1; 
stroke-linecap:round; stroke-linejoin:round;">
</g>
<g style="fill:#000000; fill-opacity:1.0; 
stroke:#000000; stroke-width:0; stroke-opacity:1; 
stroke-linecap:round; stroke-linejoin:round;">
<circle cx="72048.1" cy="44881.9" r="1181.1" /> 
</g>
<g style="fill:#000000; fill-opacity:1.0; 
stroke:#000000; stroke-width:39.3701; stroke-opacity:1; 
stroke-linecap:round; stroke-linejoin:round;">
</g>
<g style="fill:#000000; fill-opacity:1.0; 
stroke:#000000; stroke-width:0; stroke-opacity:1; 
stroke-linecap:round; stroke-linejoin:round;">
<circle cx="81300.1" cy="35039.4" r="393.701" /> 
</g>
<g style="fill:#000000; fill-opacity:1.0; 
stroke:#000000; stroke-width:39.3701; stroke-opacity:1; 
stroke-linecap:round; stroke-linejoin:round;">
</g>
<g style="fill:#000000; fill-opacity:1.0; 
stroke:#000000; stroke-width:0; stroke-opacity:1; 
stroke-linecap:round; stroke-linejoin:round;">
<circle cx="81300.1" cy="40944.9" r="393.701" /> 
</g>
<g style="fill:#000000; fill-opacity:1.0; 
stroke:#000000; stroke-width:39.3701; stroke-opacity:1; 
stroke-linecap:round; stroke-linejoin:round;">
</g>
<g style="fill:#000000; fill-opacity:1.0; 
stroke:#000000; stroke-width:0; stroke-opacity:1; 
stroke-linecap:round; stroke-linejoin:round;">
<circle cx="75130" cy="40650" r="393.701" /> 
</g>
<g style="fill:#000000; fill-opacity:1.0; 
stroke:#000000; stroke-width:39.3701; stroke-opacity:1; 
stroke-linecap:round; stroke-linejoin:round;">
</g>
<g style="fill:#000000; fill-opacity:1.0; 
stroke:#000000; stroke-width:0; stroke-opacity:1; 
stroke-linecap:round; stroke-linejoin:round;">
<circle cx="73917.9" cy="40649.3" r="393.701" /> 
</g>
<g style="fill:#000000; fill-opacity:1.0; 
stroke:#000000; stroke-width:39.3701; stroke-opacity:1; 
stroke-linecap:round; stroke-linejoin:round;">
</g>
<g style="fill:#000000; fill-opacity:1.0; 
stroke:#000000; stroke-width:0; stroke-opacity:1; 
stroke-linecap:round; stroke-linejoin:round;">
<circle cx="80217.4" cy="39370.1" r="393.701" /> 
</g>
<g style="fill:#000000; fill-opacity:1.0; 
stroke:#000000; stroke-width:39.3701; stroke-opacity:1; 
stroke-linecap:round; stroke-linejoin:round;">
</g>
<g style="fill:#000000; fill-opacity:1.0; 
stroke:#000000; stroke-width:0; stroke-opacity:1; 
stroke-linecap:round; stroke-linejoin:round;">
<circle cx="75099.3" cy="36614.2" r="393.701" /> 
</g>
<g style="fill:#000000; fill-opacity:1.0; 
stroke:#000000; stroke-width:39.3701; stroke-opacity:1; 
stroke-linecap:round; stroke-linejoin:round;">
</g>
<g style="fill:#000000; fill-opacity:1.0; 
stroke:#000000; stroke-width:0; stroke-opacity:1; 
stroke-linecap:round; stroke-linejoin:round;">
<circle cx="72737.1" cy="40649.6" r="393.701" /> 
</g>
<g style="fill:#000000; fill-opacity:1.0; 
stroke:#000000; stroke-width:39.3701; stroke-opacity:1; 
stroke-linecap:round; stroke-linejoin:round;">
</g>
<g style="fill:#000000; fill-opacity:1.0; 
stroke:#000000; stroke-width:393.701; stroke-opacity:1; 
stroke-linecap:round; stroke-linejoin:round;">
</g>
<g style="fill:#000000; fill-opacity:0.0; 
stroke:#000000; stroke-width:393.701; stroke-opacity:1; 
stroke-linecap:round; stroke-linejoin:round;">
<path d="M81300 40944
L81300 35039
" />
</g>
<g style="fill:#000000; fill-opacity:0.0; 
stroke:#000000; stroke-width:196.85; stroke-opacity:1; 
stroke-linecap:round; stroke-linejoin:round;">
<path d="M75880 41050
L75480 40650
" />
<path d="M75480 40650
L75130 40650
" />
<path d="M77559 39370
L75880 41050
" />
</g>
<g style="fill:#000000; fill-opacity:0.0; 
stroke:#000000; stroke-width:393.701; stroke-opacity:1; 
stroke-linecap:round; stroke-linejoin:round;">
<path d="M73917 40649
L73917 39173
" />
<path d="M73917 39173
L76541 36550
" />
<path d="M76541 36550
L79130 36550
" />
<path d="M79130 36550
L80217 37637
" />
<path d="M80217 37637
L80217 39370
" />
<path d="M72737 40649
L72737 38976
" />
<path d="M72737 38976
L75099 36614
" />
</g>
<g style="fill:#000000; fill-opacity:1.0; 
stroke:#000000; stroke-width:100; stroke-opacity:1; 
stroke-linecap:round; stroke-linejoin:round;">
<polyline style="fill-rule:evenodd;"
points="71010,31909
70463,32274
70099,32820
69965,33492
69965,45248
70099,45919
70463,46466
71010,46830
71681,46964
83437,46964
84109,46830
84655,46466
85020,45919
85154,45248
85154,45165
84503,45165
84285,45691
83883,46094
83357,46312
82788,46313
82262,46095
81859,45693
81656,45206
79203,45206
79105,45442
78925,45624
78688,45722
78432,45722
78195,45624
78059,45489
77925,45624
77688,45722
77432,45722
77195,45624
77169,45598
77136,45650
77052,45707
76953,45727
76166,45727
76073,45709
75988,45655
75931,45571
75911,45472
75911,45165
73479,45165
73262,45691
72859,46094
72334,46312
71764,46313
71238,46095
70835,45693
70617,45167
70616,44598
70834,44072
71236,43669
71762,43451
72331,43450
72857,43667
73260,44070
73478,44595
73479,45165
75911,45165
75911,44685
75928,44592
75983,44507
76067,44450
76166,44430
76953,44430
77046,44447
77131,44502
77169,44558
77194,44533
77431,44435
77687,44434
77924,44532
78059,44668
78194,44533
78431,44435
78687,44434
78924,44532
79105,44713
79203,44950
79203,45206
81656,45206
81640,45167
81640,44598
81857,44072
82260,43669
82785,43451
83355,43450
83881,43667
84284,44070
84502,44595
84503,45165
85154,45165
85154,34141
84503,34141
84285,34667
83883,35070
83357,35289
82788,35289
82491,35166
81943,35166
81846,35403
81746,35502
81746,40481
81845,40579
81943,40816
81943,41072
81846,41309
81665,41490
81428,41588
81172,41588
80935,41490
80754,41309
80656,41073
80656,40960
79079,40960
78848,41228
78039,41580
77156,41595
76335,41272
76271,41228
76040,40960
77559,39440
79079,40960
80656,40960
80656,40817
80754,40580
80853,40481
80853,39516
80763,39734
80582,39915
80346,40013
80089,40013
79853,39916
79764,39827
79461,40594
79418,40658
79150,40889
77630,39370
77489,39370
75969,40889
75701,40658
75349,39849
75334,38966
75657,38145
75701,38081
75969,37850
77489,39370
77630,39370
79150,37850
79418,38081
79770,38890
79770,38892
79770,37822
79727,37779
79079,37779
77559,39299
76040,37779
76271,37511
77080,37159
77963,37144
78784,37468
78848,37511
79079,37779
79727,37779
78944,36996
76726,36996
74364,39358
74364,40185
74463,40284
74561,40520
74561,40776
74463,41013
74283,41194
74046,41292
73790,41293
73553,41195
73372,41014
73327,40906
73283,41013
73102,41194
72865,41293
72609,41293
72372,41195
72191,41014
72093,40778
72093,40522
72191,40285
72290,40186
72290,38976
72324,38805
72421,38660
74455,36625
74455,36486
74553,36250
74734,36068
74970,35970
75226,35970
75463,36068
75644,36249
75742,36485
75743,36716
76225,36234
76325,36167
76370,36137
76541,36103
79130,36103
79301,36137
79346,36167
79445,36234
80533,37321
80630,37466
80664,37637
80664,38906
80762,39004
80853,39222
80853,35502
80754,35404
80656,35167
80656,34911
80754,34675
80934,34493
81171,34395
81427,34395
81664,34493
81845,34674
81943,34910
81943,35166
82491,35166
82262,35072
81859,34669
81640,34144
81640,34045
79920,34045
79920,34045
79920,34045
79920,34095
79920,34095
79920,34095
79920,34122
79920,34178
79920,34178
79920,34178
79920,34191
79920,34247
79920,34247
79920,34247
79920,34274
79920,34274
79920,34300
79920,34325
79920,34325
79920,34325
79920,34350
79920,34373
79920,34373
79920,34373
79920,34395
79920,34395
79920,34417
79920,34417
79920,34417
79920,34437
79920,34437
79920,34457
79920,34457
79920,34457
79920,34476
79920,34476
79920,34476
79920,34495
79920,34495
79920,34495
79920,34512
79920,34512
79920,34512
79920,34529
79920,34529
79920,34529
79920,34545
79920,34545
79920,34545
79920,34560
79920,34560
79920,34560
79920,34575
79920,34575
79920,34575
79920,34589
79920,34589
79920,34589
79920,34602
79920,34602
79920,34602
79920,34614
79920,34614
79920,34614
79920,34626
79920,34626
79920,34626
79920,34638
79920,34638
79920,34638
79920,34648
79920,34648
79920,34648
79920,34658
79920,34658
79920,34658
79920,34668
79920,34668
79920,34668
79920,34677
79920,34677
79920,34677
79920,34685
79920,34685
79920,34685
79920,34693
79920,34693
79920,34693
79920,34701
79920,34701
79920,34701
79920,34708
79920,34708
79920,34708
79920,34714
79920,34714
79920,34715
79920,34721
79920,34721
79920,34721
79919,34726
79919,34726
79919,34726
79919,34732
79919,34732
79919,34732
79919,34736
79919,34736
79919,34737
79919,34741
79919,34741
79919,34741
79919,34745
79919,34745
79919,34745
79919,34749
79919,34749
79919,34749
79919,34753
79919,34753
79919,34753
79919,34756
79919,34756
79919,34756
79919,34759
79919,34759
79919,34759
79919,34762
79919,34762
79919,34762
79919,34765
79919,34765
79919,34765
79919,34767
79919,34768
79919,34768
79919,34770
79919,34770
79919,34770
79919,34772
79919,34772
79919,34773
79919,34774
79919,34775
79919,34776
79919,34777
79919,34777
79919,34778
79919,34779
79919,34780
79919,34781
79919,34782
79919,34783
79919,34784
79919,34784
79918,34786
79919,34787
79919,34788
79918,34789
79918,34790
79918,34791
79918,34792
79918,34794
79918,34794
79918,34796
79918,34797
79918,34797
79917,34800
79917,34803
79915,34819
79914,34823
79914,34828
79912,34843
79910,34848
79910,34854
79907,34868
79905,34873
79905,34879
79901,34893
79899,34898
79899,34903
79895,34917
79892,34921
79892,34926
79888,34936
79886,34941
79885,34946
79878,34963
79875,34969
79873,34976
79866,34992
79862,34998
79860,35005
79852,35021
79847,35026
79845,35033
79836,35048
79832,35053
79829,35060
79819,35075
79814,35080
79811,35086
79801,35100
79796,35105
79793,35111
79781,35125
79776,35129
79772,35135
79760,35148
79755,35152
79751,35158
79738,35170
79732,35174
79728,35179
79715,35191
79709,35194
79704,35200
79690,35211
79684,35214
79680,35219
79665,35229
79659,35232
79654,35237
79638,35246
79632,35249
79627,35253
79611,35262
79604,35264
79599,35268
79582,35276
79579,35277
79575,35279
79573,35281
79569,35281
79565,35284
79549,35291
79542,35292
79535,35295
79518,35301
79511,35302
79505,35305
79488,35310
79481,35311
79474,35314
79457,35318
79450,35318
79443,35320
79425,35324
79418,35323
79412,35325
79394,35327
79388,35327
79383,35328
79372,35329
79366,35329
79360,35330
79359,35330
79357,35330
79356,35330
79354,35330
79353,35330
79353,35330
79350,35330
79350,35330
79349,35330
79346,35330
79345,35330
79345,35330
79340,35330
79340,35330
79340,35330
79335,35330
79335,35330
79335,35330
79328,35330
79328,35330
79328,35330
79321,35330
79321,35330
79321,35330
79313,35330
79313,35330
79312,35330
79304,35330
79304,35330
79304,35330
79294,35330
79294,35330
79294,35330
79284,35330
79284,35330
79284,35330
79273,35330
79273,35330
79272,35330
79261,35330
79261,35330
79261,35330
79248,35330
79248,35330
79248,35330
79235,35330
79235,35330
79235,35330
79222,35330
79222,35330
79222,35330
79207,35330
79207,35330
79207,35330
79193,35330
79193,35330
79193,35330
79177,35330
79177,35330
79177,35330
79162,35330
79162,35330
79162,35330
79145,35330
79145,35330
79145,35330
79128,35330
79128,35330
79128,35330
79111,35330
79111,35330
79111,35330
79094,35330
79094,35330
79094,35330
79076,35330
79076,35330
79076,35330
79057,35330
79057,35330
79057,35330
79039,35330
79039,35330
79039,35330
79020,35330
79020,35330
79020,35330
79000,35330
79000,35330
79000,35330
78981,35330
78981,35330
78981,35330
78961,35330
78961,35330
78961,35330
78941,35330
78941,35330
78941,35330
78921,35330
78921,35330
78921,35330
78900,35330
78900,35330
78900,35330
78880,35330
78880,35330
78859,35330
78859,35330
78859,35330
78838,35330
78838,35330
78838,35330
78818,35330
78818,35330
78818,35330
78797,35330
78797,35330
78797,35330
78776,35330
78776,35330
78776,35330
78755,35330
78755,35330
78755,35330
78734,35330
78734,35330
78734,35330
78713,35330
78713,35330
78713,35330
78693,35330
78693,35330
78693,35330
78672,35330
78652,35330
78652,35330
78652,35330
78631,35330
78631,35330
78631,35330
78611,35330
78611,35330
78611,35330
78591,35330
78591,35330
78591,35330
78571,35330
78571,35330
78571,35330
78552,35330
78552,35330
78552,35330
78533,35330
78533,35330
78533,35330
78514,35330
78514,35330
78514,35330
78495,35330
78495,35330
78495,35330
78477,35330
78477,35330
78477,35330
78459,35330
78459,35330
78459,35330
78442,35330
78442,35330
78442,35330
78425,35330
78425,35330
78425,35330
78408,35330
78408,35330
78408,35330
78392,35330
78392,35330
78392,35330
78376,35330
78376,35330
78376,35330
78361,35330
78361,35330
78361,35330
78346,35330
78346,35330
78346,35330
78332,35330
78332,35330
78332,35330
78319,35330
78319,35330
78319,35330
78306,35330
78306,35330
78306,35330
78294,35330
78294,35330
78294,35330
78282,35330
78282,35330
78282,35330
78271,35330
78271,35330
78271,35330
78261,35330
78261,35330
78261,35330
78252,35330
78252,35330
78252,35330
78243,35330
78243,35330
78243,35330
78235,35330
78235,35330
78235,35330
78228,35330
78228,35330
78228,35330
78222,35330
78222,35330
78222,35330
78217,35330
78216,35330
78216,35330
78212,35330
78212,35330
78212,35330
78208,35330
78208,35330
78207,35330
78205,35330
78204,35330
78203,35330
78202,35330
78200,35330
78198,35330
78197,35330
78193,35329
78190,35329
78186,35329
78185,35329
78184,35329
78180,35329
78179,35329
78178,35329
78174,35328
78173,35328
78172,35328
78168,35328
78167,35328
78166,35328
78164,35328
78160,35326
78156,35327
78138,35324
78132,35322
78125,35322
78107,35319
78101,35316
78094,35316
78077,35312
78071,35309
78064,35309
78047,35304
78041,35300
78034,35299
78018,35293
78012,35290
78005,35289
77989,35282
77983,35278
77977,35277
77961,35269
77956,35265
77950,35263
77934,35255
77929,35250
77923,35248
77908,35239
77903,35234
77897,35232
77883,35222
77879,35217
77873,35214
77859,35204
77855,35199
77849,35196
77836,35184
77832,35179
77826,35176
77814,35164
77810,35159
77805,35155
77793,35142
77789,35137
77784,35133
77773,35120
77770,35114
77765,35109
77754,35096
77751,35090
77746,35085
77737,35071
77734,35065
77729,35060
77720,35045
77718,35039
77714,35034
77705,35019
77703,35012
77699,35007
77692,34991
77690,34985
77686,34979
77680,34963
77678,34956
77675,34950
77669,34934
77668,34927
77665,34921
77660,34904
77659,34897
77656,34891
77652,34873
77652,34866
77649,34860
77646,34842
77646,34838
77645,34834
77645,34832
77645,34830
77644,34829
77644,34825
77644,34824
77643,34823
77643,34819
77643,34818
77643,34817
77642,34813
77642,34812
77642,34811
77641,34807
77641,34806
77641,34805
77641,34804
77641,34803
77641,34802
77641,34801
77641,34799
77640,34797
77640,34797
77641,34795
77640,34794
77640,34793
77640,34792
77640,34790
77640,34790
77640,34788
77640,34787
77640,34786
77640,34785
77640,34784
77640,34783
77640,34783
77640,34782
77640,34781
77640,34780
77639,34779
77639,34778
77640,34777
77639,34777
77639,34775
77639,34775
77639,34775
77639,34773
77639,34773
77639,34772
77639,34770
77639,34770
77639,34770
77639,34768
77639,34767
77639,34767
77639,34765
77639,34765
77639,34764
77639,34762
77639,34762
77639,34762
77639,34759
77639,34759
77639,34758
77639,34755
77639,34755
77639,34755
77639,34752
77639,34751
77639,34751
77639,34747
77639,34747
77639,34747
77639,34743
77639,34743
77639,34743
77639,34739
77639,34738
77639,34738
77639,34733
77639,34733
77639,34733
77639,34728
77639,34728
77639,34728
77639,34722
77639,34722
77639,34722
77639,34716
77639,34716
77639,34716
77639,34709
77639,34709
77639,34709
77639,34702
77639,34702
77639,34702
77639,34695
77639,34695
77639,34695
77639,34686
77639,34686
77639,34686
77639,34678
77634,34679
77630,34680
77625,34680
77620,34681
77615,34682
77610,34681
77605,34683
77600,34683
77595,34682
77591,34683
77586,34684
77580,34683
77575,34684
77570,34684
77563,34682
77555,34683
77551,34683
77540,34679
77528,34680
77525,34679
77512,34674
77510,34674
77508,34673
77493,34671
77487,34669
77475,34663
77474,34663
77474,34662
77473,34662
77470,34661
77456,34657
77450,34655
77437,34645
77433,34644
77433,34643
77419,34638
77414,34634
77411,34631
77402,34638
77392,34650
77386,34655
77373,34663
77361,34675
77355,34679
77340,34685
77327,34695
77320,34699
77305,34703
77292,34711
77284,34714
77273,34715
77262,34720
77257,34722
77245,34722
77234,34726
77232,34727
77223,34726
77215,34729
77212,34729
77207,34728
77203,34730
77199,34730
77196,34729
77193,34730
77189,34730
77186,34730
77183,34730
77179,34730
77177,34730
77174,34730
77170,34730
77168,34730
77165,34730
77161,34730
77158,34729
77155,34730
77151,34729
77146,34728
77142,34729
77138,34728
77132,34727
77125,34727
77124,34727
77114,34723
77106,34723
77106,34725
77106,34725
77106,34725
77104,34746
77104,34746
77104,34746
77102,34766
77102,34766
77102,34767
77100,34785
77100,34786
77100,34786
77098,34804
77098,34804
77098,34805
77096,34821
77096,34822
77096,34822
77094,34838
77094,34839
77094,34840
77092,34855
77092,34855
77092,34856
77090,34870
77090,34871
77090,34871
77088,34885
77088,34886
77088,34886
77087,34899
77086,34900
77086,34901
77085,34912
77084,34913
77084,34914
77083,34925
77082,34927
77082,34928
77081,34938
77080,34939
77080,34941
77079,34950
77078,34951
77078,34952
77078,34956
77077,34958
77077,34961
77074,34975
77072,34980
77072,34985
77069,34998
77066,35003
77066,35009
77062,35021
77060,35027
77059,35033
77055,35045
77051,35051
77050,35057
77046,35069
77042,35075
77040,35082
77035,35093
77030,35099
77028,35107
77023,35117
77017,35123
77014,35131
77008,35140
77002,35147
76998,35155
76992,35163
76985,35170
76981,35178
76974,35186
76967,35191
76963,35198
76956,35205
76948,35210
76943,35218
76936,35224
76926,35230
76918,35238
76912,35243
76900,35249
76890,35257
76883,35261
76870,35266
76858,35274
76851,35277
76837,35281
76824,35288
76816,35290
76806,35291
76797,35295
76794,35296
76785,35296
76776,35299
76772,35300
76761,35299
76751,35302
76747,35302
76739,35301
76730,35303
76726,35303
76718,35301
76710,35302
76705,35302
76696,35300
76686,35300
76682,35300
76671,35296
76659,35295
76657,35295
76644,35289
76643,35289
76641,35288
76628,35286
76622,35284
76611,35277
76610,35277
76608,35275
76607,35275
76604,35273
76589,35269
76584,35266
76571,35255
76568,35254
76567,35253
76554,35247
76549,35243
76540,35233
76538,35232
76537,35230
76524,35222
76519,35217
76511,35206
76499,35196
76495,35191
76489,35180
76480,35171
76476,35165
76472,35157
76467,35150
76464,35145
76461,35138
76457,35132
76452,35122
76449,35113
76444,35105
76440,35095
76438,35086
76434,35079
76430,35068
76429,35059
76425,35052
76423,35041
76422,35032
76419,35025
76417,35013
76417,35006
76415,34999
76413,34987
76414,34980
76412,34974
76411,34961
76411,34957
76410,34954
76410,34954
76410,34953
76410,34952
76410,34948
76410,34946
76410,34944
76410,34940
76410,34937
76410,34935
76410,34931
76410,34928
76410,34926
76410,34921
76410,34919
76410,34917
76410,34912
76410,34911
76410,34909
76410,34904
76411,34902
76411,34900
76411,34895
76411,34894
76411,34892
76411,34886
76412,34885
76412,34884
76412,34877
76412,34876
76412,34876
76413,34868
76413,34867
76413,34867
76413,34864
76413,34864
76413,34863
76414,34854
76414,34853
76414,34852
76415,34841
76415,34841
76415,34840
76416,34829
76417,34828
76417,34828
76418,34815
76418,34815
76418,34814
76419,34801
76419,34801
76419,34800
76421,34786
76421,34786
76421,34785
76423,34770
76423,34770
76423,34770
76424,34754
76425,34753
76425,34753
76426,34736
76427,34736
76427,34736
76429,34718
76429,34718
76429,34718
76430,34704
76423,34707
76416,34710
76404,34711
76393,34716
76386,34717
76374,34718
76362,34721
76355,34722
76343,34721
76331,34724
76326,34724
76318,34722
76309,34724
76304,34723
76298,34722
76291,34722
76286,34722
76281,34720
76275,34720
76269,34720
76263,34717
76257,34717
76252,34716
76245,34713
76237,34713
76232,34712
76227,34709
76220,34708
76220,34708
76212,34704
76203,34702
76196,34699
76184,34692
76184,34692
76183,34691
76168,34686
76161,34683
76149,34672
76148,34672
76147,34671
76133,34665
76127,34660
76117,34649
76117,34649
76116,34648
76110,34644
76104,34647
76095,34650
76087,34655
76083,34657
76076,34658
76069,34663
76063,34665
76053,34666
76045,34670
76039,34672
76030,34673
76023,34676
76016,34677
76008,34677
76001,34680
75994,34681
75986,34680
75978,34682
75972,34683
75963,34682
75955,34684
75948,34684
75938,34682
75928,34683
75923,34683
75910,34679
75898,34680
75893,34679
75882,34675
75870,34674
75868,34673
75855,34667
75854,34667
75853,34667
75841,34665
75836,34662
75820,34653
75818,34652
75816,34651
75801,34646
75796,34643
75783,34631
75780,34630
75780,34630
75775,34633
75767,34645
75761,34650
75748,34658
75737,34669
75731,34674
75716,34680
75704,34691
75697,34694
75681,34699
75667,34708
75660,34711
75651,34712
75643,34717
75641,34717
75637,34718
75632,34720
75628,34721
75620,34721
75612,34724
75608,34725
75599,34725
75597,34726
75596,34732
75591,34745
75586,34752
75584,34760
75579,34772
75574,34779
75572,34786
75565,34798
75563,34802
75561,34805
75559,34809
75557,34811
75556,34814
75554,34817
75551,34821
75549,34826
75547,34828
75541,34835
75537,34843
75535,34845
75526,34853
75520,34863
75518,34865
75508,34872
75500,34882
75498,34884
75489,34889
75481,34897
75479,34899
75473,34902
75468,34907
75465,34908
75462,34910
75460,34912
75456,34914
75455,34914
75455,34915
75455,34915
75452,34916
75450,34918
75445,34921
75440,34922
75435,34926
75430,34928
75425,34930
75420,34934
75415,34936
75409,34937
75405,34941
75399,34943
75394,34944
75389,34947
75383,34949
75378,34950
75374,34952
75368,34954
75364,34955
75360,34956
75353,34958
75350,34959
75347,34960
75339,34962
75336,34962
75333,34964
75325,34966
75323,34966
75321,34967
75311,34969
75310,34969
75309,34969
75308,34969
75308,34969
75305,34971
75305,34972
75304,34972
75301,34974
75300,34975
75300,34975
75297,34977
75296,34978
75295,34978
75293,34980
75292,34981
75291,34982
75289,34983
75287,34984
75286,34985
75284,34986
75283,34987
75282,34988
75280,34989
75279,34990
75278,34991
75276,34992
75273,34993
75270,34996
75261,35001
75254,35004
75248,35008
75239,35013
75231,35016
75225,35020
75216,35025
75207,35027
75200,35031
75191,35035
75182,35036
75175,35040
75165,35043
75159,35043
75154,35046
75149,35047
75147,35047
75146,35048
75140,35050
75129,35050
75128,35050
75116,35050
75091,35051
75071,35052
75067,35053
75067,35052
75042,35053
75037,35053
75033,35051
75030,35051
75015,35049
75007,35046
75000,35045
74985,35042
74978,35038
74970,35037
74956,35033
74949,35029
74941,35027
74927,35022
74920,35017
74912,35015
74899,35009
74892,35004
74885,35002
74872,34995
74869,34992
74865,34991
74863,34990
74862,34989
74861,34988
74856,34985
74854,34983
74851,34982
74846,34979
74844,34977
74842,34976
74837,34973
74835,34971
74832,34970
74827,34966
74825,34964
74823,34963
74818,34959
74816,34958
74814,34956
74808,34952
74807,34951
74805,34950
74799,34945
74798,34944
74796,34943
74790,34938
74789,34937
74788,34936
74781,34930
74780,34929
74779,34929
74772,34923
74771,34922
74771,34921
74763,34915
74762,34914
74762,34913
74758,34910
74757,34910
74752,34910
74749,34910
74747,34910
74742,34910
74739,34909
74736,34910
74731,34910
74727,34908
74722,34909
74719,34909
74713,34907
74708,34907
74706,34907
74699,34905
74692,34905
74684,34903
74675,34900
74665,34899
74658,34897
74647,34892
74636,34890
74629,34888
74618,34881
74604,34877
74598,34874
74586,34865
74572,34859
74567,34856
74556,34844
74542,34836
74537,34832
74530,34824
74522,34818
74520,34817
74517,34811
74512,34808
74509,34805
74504,34795
74495,34788
74493,34785
74488,34773
74479,34763
74477,34761
74475,34753
74470,34747
74469,34746
74468,34744
74467,34742
74466,34740
74465,34735
74462,34731
74461,34730
74461,34727
74459,34724
74456,34712
74450,34700
74450,34699
74448,34678
74444,34668
74445,34664
74441,34651
74441,34646
74441,34645
74441,34641
74440,34634
74440,34632
74439,34628
74439,34627
74442,34614
74441,34601
74441,34599
74441,34599
74448,34577
74448,34577
74448,34563
74449,34561
74450,34553
74450,34552
74455,34543
74456,34537
74457,34536
74458,34531
74458,34530
74458,34530
74458,34529
74466,34518
74470,34505
74471,34502
74482,34489
74489,34473
74492,34470
74496,34466
74496,34466
74500,34462
74506,34453
74509,34449
74515,34444
74519,34438
74523,34434
74528,34430
74532,34425
74537,34421
74541,34419
74543,34415
74549,34410
74552,34408
74555,34405
74561,34400
74564,34399
74566,34396
74573,34391
74574,34390
74576,34389
74576,34389
74577,34388
74578,34387
74582,34384
74582,34379
74583,34370
74586,34360
74585,34350
74587,34342
74591,34331
74592,34320
74594,34312
74599,34301
74601,34290
74604,34282
74610,34272
74613,34260
74617,34253
74623,34244
74627,34233
74632,34225
74638,34217
74643,34208
74648,34200
74655,34194
74659,34186
74665,34178
74671,34173
74675,34167
74682,34159
74688,34155
74692,34149
74698,34144
74701,34141
73479,34141
73262,34667
72859,35070
72334,35289
71764,35289
71238,35072
70835,34669
70617,34144
70616,33574
70834,33048
71236,32645
71762,32427
72331,32426
72857,32644
73260,33046
73478,33572
73479,34141
74701,34141
74705,34139
74710,34132
74716,34127
74725,34122
74733,34114
74738,34110
74750,34105
74759,34097
74763,34094
74771,34092
74770,34092
74763,34085
74762,34083
74760,34082
74753,34075
74752,34074
74751,34073
74749,34071
74748,34070
74746,34068
74737,34059
74735,34056
74732,34054
74724,34045
74722,34042
74718,34039
74711,34030
74709,34026
74705,34023
74698,34015
74696,34010
74692,34006
74685,33998
74683,33993
74679,33989
74673,33980
74671,33975
74667,33971
74662,33962
74660,33957
74657,33952
74652,33943
74651,33939
74648,33936
74645,33930
74643,33925
74640,33920
74633,33905
74632,33898
74628,33891
74622,33876
74620,33868
74617,33861
74612,33846
74611,33838
74608,33831
74604,33815
74603,33807
74600,33800
74597,33784
74597,33777
74595,33769
74593,33753
74594,33745
74592,33738
74590,33721
74591,33714
74590,33707
74590,33690
74590,33686
74590,33682
74590,33680
74591,33676
74590,33672
74591,33656
74592,33649
74592,33642
74593,33627
74596,33620
74595,33612
74598,33597
74600,33590
74601,33582
74604,33568
74607,33560
74608,33553
74612,33538
74615,33531
74616,33523
74622,33509
74625,33503
74627,33495
74633,33481
74637,33476
74638,33470
74643,33460
74647,33455
74649,33448
74656,33434
74661,33428
74664,33421
74673,33407
74678,33402
74681,33395
74691,33381
74696,33376
74699,33370
74710,33357
74715,33352
74719,33346
74730,33333
74736,33329
74739,33324
74752,33311
74757,33308
74761,33303
74774,33290
74779,33287
74783,33283
74798,33271
74803,33268
74806,33264
74822,33252
74827,33250
74830,33246
74847,33235
74851,33233
74855,33229
74872,33218
74875,33217
74877,33215
74880,33213
74883,33212
74885,33210
74905,33199
74910,33197
74914,33194
74934,33184
74939,33182
74944,33179
74964,33170
74969,33168
74974,33165
74994,33157
75000,33156
75005,33153
75026,33146
75031,33145
75036,33142
75057,33136
75063,33135
75068,33133
75089,33127
75095,33127
75100,33125
75122,33120
75128,33120
75133,33118
75155,33114
75160,33115
75165,33113
75188,33110
75193,33110
75198,33109
75221,33107
75224,33107
75227,33107
75232,33106
75234,33107
75236,33106
75239,33106
75241,33106
75242,33106
75246,33106
75247,33106
75249,33106
75253,33106
75254,33106
75255,33106
75260,33106
75260,33106
75261,33106
75266,33106
75267,33106
75267,33106
75272,33106
75273,33106
75274,33106
75278,33106
75279,33106
75280,33106
75284,33106
75286,33106
75287,33106
75290,33106
75292,33106
75293,33106
75297,33106
75299,33107
75302,33106
75304,33106
75308,33107
75311,33107
75312,33107
75318,33108
75324,33108
75336,33110
75344,33112
75344,33112
75350,33092
75351,33090
75351,33087
75361,33054
75362,33052
75362,33051
75367,33034
75367,33033
75368,33031
75375,33009
75376,33007
75376,33005
75383,32984
75384,32982
75384,32980
75392,32960
75393,32957
75393,32955
75401,32936
75402,32933
75403,32931
75410,32913
75412,32910
75412,32907
75420,32890
75421,32887
75422,32884
75430,32868
75432,32865
75433,32861
75440,32846
75443,32843
75444,32839
75452,32825
75454,32821
75456,32817
75464,32804
75467,32800
75469,32795
75477,32783
75480,32779
75483,32774
75490,32763
75493,32760
75495,32757
75496,32755
75499,32753
75500,32750
75506,32743
75509,32740
75512,32735
75518,32728
75521,32725
75523,32722
75530,32715
75533,32712
75536,32709
75542,32702
75546,32699
75549,32695
75555,32689
75558,32687
75561,32684
75564,32681
75569,32678
75572,32674
75583,32665
75590,32661
75596,32655
75607,32647
75615,32643
75622,32637
75633,32630
75642,32627
75649,32621
75661,32615
75670,32612
75677,32607
75689,32602
75699,32600
75707,32595
75719,32591
75729,32589
75737,32585
75750,32582
75759,32581
75767,32578
75781,32575
75788,32575
75794,32573
75803,32572
75808,32572
75814,32570
75817,32570
75821,32570
75824,32569
75828,32569
75830,32570
75833,32569
75837,32569
75839,32569
75840,32569
75845,32569
75846,32569
75848,32568
75853,32568
75854,32569
75855,32568
75861,32568
75862,32569
75863,32568
75868,32568
75870,32569
75872,32568
75876,32568
75878,32569
75881,32568
75884,32569
75887,32569
75890,32569
75892,32569
75896,32570
75901,32570
75918,32571
75925,32573
75931,32573
75949,32575
75955,32577
75962,32577
75979,32581
75985,32583
75992,32584
76009,32588
76015,32591
76022,32592
76039,32597
76045,32600
76051,32601
76068,32607
76074,32611
76080,32612
76096,32619
76101,32622
76106,32624
76117,32629
76119,32631
76122,32632
76127,32634
76128,32635
76130,32636
76135,32638
76136,32639
76137,32640
76142,32642
76143,32643
76145,32644
76149,32646
76151,32647
76152,32648
76156,32650
76158,32652
76160,32653
76164,32655
76166,32657
76169,32658
76171,32659
76172,32661
76174,32661
76176,32662
76176,32662
76176,32662
76178,32664
76178,32664
76180,32665
76180,32665
76183,32667
76183,32667
76183,32667
76186,32669
76186,32669
76186,32669
76187,32670
76189,32672
76192,32673
76207,32684
76211,32688
76217,32691
76231,32702
76235,32706
76240,32709
76255,32721
76258,32726
76263,32729
76277,32742
76280,32746
76285,32749
76299,32763
76302,32768
76306,32771
76319,32785
76321,32789
76324,32791
76331,32799
76333,32802
76335,32804
76344,32814
76345,32818
76348,32820
76357,32831
76358,32835
76361,32837
76369,32848
76370,32852
76373,32854
76380,32865
76382,32869
76385,32872
76392,32883
76393,32887
76396,32890
76402,32901
76404,32905
76406,32908
76412,32919
76413,32924
76417,32928
76421,32938
76423,32943
76426,32948
76430,32958
76432,32964
76435,32969
76438,32977
76439,32984
76442,32989
76445,32997
76445,33004
76449,33011
76451,33019
76451,33027
76454,33035
76456,33043
76456,33051
76458,33060
76459,33068
76459,33076
76461,33084
76461,33092
76460,33100
76462,33107
76462,33116
76461,33119
76461,33123
76461,33126
76460,33129
76461,33133
76461,33139
76468,33143
76478,33144
76485,33146
76493,33151
76502,33153
76509,33156
76514,33159
76520,33161
76525,33163
76529,33166
76534,33168
76541,33171
76546,33175
76553,33178
76560,33182
76565,33186
76571,33189
76578,33193
76582,33198
76588,33201
76595,33206
76599,33210
76604,33213
76611,33218
76614,33222
76618,33225
76626,33231
76628,33234
76628,33234
76635,33227
76641,33222
76645,33215
76648,33212
76656,33207
76661,33200
76668,33194
76679,33187
76689,33177
76695,33172
76709,33166
76720,33156
76727,33152
76742,33147
76755,33139
76762,33136
76778,33132
76792,33125
76800,33123
76815,33122
76830,33117
76838,33116
76853,33117
76868,33113
76876,33113
76888,33115
76899,33114
76905,33114
76916,33117
76928,33117
76936,33118
76950,33123
76964,33124
76972,33127
76972,33127
76973,33126
76973,33123
76982,33089
76983,33087
76984,33084
76994,33050
76994,33049
76994,33047
76999,33033
76999,33032
77000,33031
77007,33009
77008,33007
77008,33004
77015,32983
77016,32981
77017,32979
77024,32959
77025,32957
77025,32954
77033,32935
77034,32933
77035,32930
77042,32912
77044,32909
77044,32906
77052,32889
77054,32886
77054,32883
77062,32867
77064,32864
77065,32860
77073,32845
77075,32842
77076,32838
77084,32824
77087,32820
77088,32816
77096,32803
77100,32799
77101,32794
77109,32782
77113,32778
77115,32773
77123,32761
77128,32757
77131,32752
77138,32741
77143,32738
77145,32733
77148,32730
77150,32728
77152,32725
77155,32721
77157,32720
77158,32718
77162,32714
77164,32713
77165,32711
77169,32707
77170,32706
77171,32704
77175,32700
77177,32699
77179,32697
77182,32694
77185,32692
77187,32689
77189,32687
77193,32684
77197,32680
77207,32671
77213,32668
77218,32662
77229,32654
77236,32651
77241,32645
77252,32638
77260,32635
77266,32629
77277,32623
77285,32620
77292,32615
77303,32610
77312,32607
77319,32603
77330,32598
77337,32597
77343,32593
77349,32591
77355,32590
77360,32588
77371,32584
77379,32584
77386,32581
77397,32578
77405,32578
77412,32575
77423,32573
77431,32574
77438,32571
77449,32570
77457,32571
77464,32569
77476,32568
77482,32569
77488,32568
77501,32568
77506,32569
77511,32568
77521,32569
77527,32570
77532,32570
77550,32571
77557,32573
77564,32573
77581,32575
77588,32578
77595,32578
77613,32581
77619,32584
77626,32584
77644,32589
77650,32592
77657,32593
77674,32598
77680,32602
77687,32603
77704,32609
77710,32613
77716,32614
77733,32622
77737,32625
77742,32626
77752,32631
77753,32632
77755,32632
77759,32634
77759,32635
77760,32635
77763,32637
77764,32637
77766,32638
77768,32639
77770,32640
77771,32641
77774,32642
77776,32644
77778,32644
77780,32646
77782,32647
77784,32648
77787,32650
77788,32651
77790,32652
77793,32653
77795,32655
77796,32655
77799,32657
77800,32658
77801,32658
77805,32661
77805,32661
77806,32662
77810,32664
77811,32665
77811,32665
77816,32668
77816,32668
77816,32668
77819,32670
77821,32672
77824,32674
77840,32684
77844,32689
77850,32692
77865,32704
77869,32708
77874,32711
77889,32724
77893,32728
77898,32731
77912,32745
77915,32749
77920,32753
77934,32767
77937,32772
77942,32775
77955,32790
77958,32795
77962,32798
77975,32814
77977,32819
77982,32822
77994,32838
77995,32842
77999,32845
78004,32853
78006,32856
78008,32859
78016,32872
78018,32876
78021,32880
78029,32892
78031,32897
78034,32901
78041,32913
78043,32919
78046,32923
78052,32935
78054,32941
78057,32947
78062,32958
78064,32965
78068,32972
78072,32982
78073,32991
78077,32998
78080,33008
78080,33018
78084,33026
78086,33036
78086,33045
78089,33054
78091,33062
78090,33064
78093,33063
78100,33063
78106,33061
78124,33057
78131,33057
78137,33055
78156,33053
78161,33053
78166,33052
78178,33051
78185,33051
78191,33050
78192,33050
78194,33050
78197,33050
78198,33050
78199,33050
78200,33050
78202,33049
78203,33050
78203,33049
78206,33049
78207,33049
78207,33049
78211,33049
78211,33049
78211,33049
78216,33049
78216,33049
78216,33049
78222,33049
78222,33049
78222,33049
78229,33049
78229,33049
78229,33049
78237,33049
78237,33049
78237,33049
78245,33049
78245,33049
78245,33049
78255,33049
78255,33049
78255,33049
78265,33049
78265,33049
78265,33049
78276,33049
78276,33049
78276,33049
78288,33049
78288,33049
78288,33049
78301,33049
78301,33049
78301,33049
78314,33049
78314,33049
78314,33049
78329,33049
78329,33049
78329,33049
78345,33049
78345,33049
78345,33049
78361,33049
78361,33049
78361,33049
78378,33049
78378,33049
78378,33049
78396,33049
78396,33049
78396,33049
78416,33049
78416,33049
78416,33049
78436,33049
78436,33049
78436,33049
78457,33049
78457,33049
78457,33049
78479,33049
78479,33049
78479,33049
78502,33049
78502,33049
78502,33049
78525,33049
78525,33049
78525,33049
78550,33049
78550,33049
78550,33049
78576,33049
78576,33049
78576,33049
78603,33049
78603,33049
78603,33049
78630,33049
78630,33049
78630,33049
78659,33049
78659,33049
78659,33049
78689,33049
78689,33049
78689,33049
78719,33049
78719,33049
78719,33049
78751,33049
78751,33049
78751,33049
78780,33049
78780,33049
78780,33049
78804,33049
78828,33049
78828,33049
78828,33049
78851,33049
78851,33049
78875,33049
78897,33049
78898,33049
78898,33049
78920,33049
78920,33049
78920,33049
78942,33049
78964,33049
78964,33049
78964,33049
78986,33049
78986,33049
79007,33049
79007,33049
79027,33049
79027,33049
79048,33049
79048,33049
79048,33049
79067,33049
79067,33049
79067,33049
79087,33049
79105,33049
79105,33049
79105,33049
79124,33049
79124,33049
79124,33049
79142,33049
79142,33049
79142,33049
79159,33049
79175,33049
79175,33049
79175,33049
79191,33049
79191,33049
79191,33049
79207,33049
79207,33049
79207,33049
79222,33049
79222,33049
79222,33049
79236,33049
79236,33049
79236,33049
79249,33049
79262,33049
79262,33049
79262,33049
79274,33049
79274,33049
79274,33049
79285,33049
79285,33049
79285,33049
79296,33049
79296,33049
79296,33049
79305,33049
79306,33049
79306,33049
79314,33049
79314,33049
79315,33049
79323,33049
79323,33049
79323,33049
79330,33049
79330,33049
79330,33049
79336,33049
79337,33049
79337,33049
79342,33049
79342,33049
79342,33049
79347,33049
79347,33049
79347,33049
79351,33049
79351,33049
79351,33049
79354,33049
79354,33049
79354,33049
79356,33049
79356,33049
79357,33049
79358,33049
79360,33050
79363,33049
79363,33049
79368,33051
79374,33050
79377,33050
79379,33051
79380,33051
79384,33051
79385,33051
79386,33051
79390,33051
79391,33052
79392,33052
79397,33052
79398,33052
79398,33052
79403,33053
79404,33053
79405,33053
79409,33053
79410,33054
79412,33054
79415,33054
79419,33056
79424,33056
79442,33058
79448,33061
79455,33061
79473,33065
79479,33068
79486,33068
79503,33073
79509,33076
79516,33077
79533,33083
79539,33086
79546,33088
79562,33094
79568,33098
79575,33100
79591,33107
79596,33111
79603,33113
79619,33122
79624,33126
79630,33128
79645,33138
79651,33142
79657,33145
79672,33155
79676,33160
79683,33163
79697,33173
79701,33179
79707,33182
79721,33193
79725,33199
79731,33203
79744,33215
79748,33221
79754,33225
79766,33238
79769,33242
79774,33246
79781,33254
79784,33259
79788,33263
79799,33277
79802,33283
79807,33288
79818,33303
79821,33309
79826,33314
79835,33330
79838,33336
79842,33341
79851,33357
79853,33364
79857,33370
79865,33386
79867,33393
79871,33398
79878,33415
79879,33422
79883,33428
79889,33445
79890,33452
79893,33458
79898,33475
79899,33482
79902,33489
79906,33506
79906,33513
79909,33520
79912,33538
79912,33543
79914,33549
79915,33560
79915,33562
79916,33564
79916,33564
79916,33564
79916,33564
79916,33565
79916,33565
79916,33565
79916,33566
79916,33567
79916,33567
79916,33568
79916,33569
79917,33570
79917,33570
79917,33572
79917,33573
79917,33574
79917,33575
79917,33576
79917,33577
79917,33578
79918,33580
79918,33581
79917,33582
79918,33583
79918,33584
79918,33585
79918,33586
79918,33588
79918,33589
79918,33590
79918,33591
79918,33592
79918,33593
79918,33594
79918,33595
79919,33596
79919,33597
79918,33598
79919,33599
79919,33601
79919,33601
79919,33602
79919,33604
79919,33604
79919,33605
79919,33607
79919,33607
79919,33608
79919,33610
79919,33610
79919,33611
79919,33613
79919,33614
79919,33614
79919,33617
79919,33617
79919,33617
79919,33621
79919,33621
79919,33621
79919,33624
79919,33625
79919,33625
79919,33629
79919,33629
79919,33629
79919,33633
79919,33633
79919,33633
79919,33638
79919,33638
79919,33638
79919,33643
79919,33643
79919,33643
79919,33648
79919,33648
79919,33648
79919,33654
79919,33654
79919,33654
79919,33660
79919,33660
79919,33660
79919,33667
79919,33667
79919,33667
79920,33674
79919,33674
79920,33674
79920,33681
79920,33681
79920,33681
79920,33689
79920,33689
79920,33689
79920,33698
79920,33698
79920,33698
79920,33706
79920,33706
79920,33707
79920,33716
79920,33716
79920,33716
79920,33726
79920,33726
79920,33726
79920,33737
79920,33737
79920,33737
79920,33748
79920,33748
79920,33748
79920,33759
79920,33760
79920,33760
79920,33772
79920,33772
79920,33772
79920,33785
79920,33785
79920,33785
79920,33799
79920,33799
79920,33799
79920,33813
79920,33813
79920,33813
79920,33828
79920,33828
79920,33828
79920,33844
79920,33844
79920,33844
79920,33845
79920,33860
79920,33860
79920,33860
79920,33878
79920,33878
79920,33878
79920,33896
79920,33896
79920,33896
79920,33914
79920,33914
79920,33914
79920,33934
79920,33934
79920,33934
79920,33954
79920,33954
79920,33954
79920,33976
79920,33976
79920,33976
79920,33998
79920,33998
79920,33998
79920,34021
79920,34045
81640,34045
81640,33574
81857,33048
82260,32645
82785,32427
83355,32426
83881,32644
84284,33046
84502,33572
84503,34141
85154,34141
85154,33492
85020,32820
84655,32274
84109,31909
83437,31775
71681,31775
71010,31909
" /> 
</g>
<g style="fill:#FFFFFF; fill-opacity:1.0; 
stroke:#FFFFFF; stroke-width:100; stroke-opacity:1; 
stroke-linecap:round; stroke-linejoin:round;">
</g>
<g style="fill:#FFFFFF; fill-opacity:1.0; 
stroke:#FFFFFF; stroke-width:0; stroke-opacity:1; 
stroke-linecap:round; stroke-linejoin:round;">
<circle cx="81300.1" cy="35039.4" r="157.48" /> 
</g>
<g style="fill:#FFFFFF; fill-opacity:1.0; 
stroke:#FFFFFF; stroke-width:39.3701; stroke-opacity:1; 
stroke-linecap:round; stroke-linejoin:round;">
</g>
<g style="fill:#FFFFFF; fill-opacity:1.0; 
stroke:#FFFFFF; stroke-width:0; stroke-opacity:1; 
stroke-linecap:round; stroke-linejoin:round;">
<circle cx="81300.1" cy="40944.9" r="157.48" /> 
</g>
<g style="fill:#FFFFFF; fill-opacity:1.0; 
stroke:#FFFFFF; stroke-width:39.3701; stroke-opacity:1; 
stroke-linecap:round; stroke-linejoin:round;">
</g>
<g style="fill:#FFFFFF; fill-opacity:1.0; 
stroke:#FFFFFF; stroke-width:0; stroke-opacity:1; 
stroke-linecap:round; stroke-linejoin:round;">
<circle cx="75130" cy="40650" r="157.48" /> 
</g>
<g style="fill:#FFFFFF; fill-opacity:1.0; 
stroke:#FFFFFF; stroke-width:39.3701; stroke-opacity:1; 
stroke-linecap:round; stroke-linejoin:round;">
</g>
<g style="fill:#FFFFFF; fill-opacity:1.0; 
stroke:#FFFFFF; stroke-width:0; stroke-opacity:1; 
stroke-linecap:round; stroke-linejoin:round;">
<circle cx="73917.9" cy="40649.3" r="157.48" /> 
</g>
<g style="fill:#FFFFFF; fill-opacity:1.0; 
stroke:#FFFFFF; stroke-width:39.3701; stroke-opacity:1; 
stroke-linecap:round; stroke-linejoin:round;">
</g>
<g style="fill:#FFFFFF; fill-opacity:1.0; 
stroke:#FFFFFF; stroke-width:0; stroke-opacity:1; 
stroke-linecap:round; stroke-linejoin:round;">
<circle cx="80217.4" cy="39370.1" r="157.48" /> 
</g>
<g style="fill:#FFFFFF; fill-opacity:1.0; 
stroke:#FFFFFF; stroke-width:39.3701; stroke-opacity:1; 
stroke-linecap:round; stroke-linejoin:round;">
</g>
<g style="fill:#FFFFFF; fill-opacity:1.0; 
stroke:#FFFFFF; stroke-width:0; stroke-opacity:1; 
stroke-linecap:round; stroke-linejoin:round;">
<circle cx="75099.3" cy="36614.2" r="157.48" /> 
</g>
<g style="fill:#FFFFFF; fill-opacity:1.0; 
stroke:#FFFFFF; stroke-width:39.3701; stroke-opacity:1; 
stroke-linecap:round; stroke-linejoin:round;">
</g>
<g style="fill:#FFFFFF; fill-opacity:1.0; 
stroke:#FFFFFF; stroke-width:0; stroke-opacity:1; 
stroke-linecap:round; stroke-linejoin:round;">
<circle cx="72737.1" cy="40649.6" r="157.48" /> 
</g>
<g style="fill:#FFFFFF; fill-opacity:1.0; 
stroke:#FFFFFF; stroke-width:39.3701; stroke-opacity:1; 
stroke-linecap:round; stroke-linejoin:round;">
</g>
<g style="fill:#FFFFFF; fill-opacity:1.0; 
stroke:#FFFFFF; stroke-width:0; stroke-opacity:1; 
stroke-linecap:round; stroke-linejoin:round;">
<circle cx="76559.9" cy="45078.7" r="157.48" /> 
</g>
<g style="fill:#FFFFFF; fill-opacity:1.0; 
stroke:#FFFFFF; stroke-width:39.3701; stroke-opacity:1; 
stroke-linecap:round; stroke-linejoin:round;">
</g>
<g style="fill:#FFFFFF; fill-opacity:1.0; 
stroke:#FFFFFF; stroke-width:0; stroke-opacity:1; 
stroke-linecap:round; stroke-linejoin:round;">
<circle cx="77559.9" cy="45078.7" r="157.48" /> 
</g>
<g style="fill:#FFFFFF; fill-opacity:1.0; 
stroke:#FFFFFF; stroke-width:39.3701; stroke-opacity:1; 
stroke-linecap:round; stroke-linejoin:round;">
</g>
<g style="fill:#FFFFFF; fill-opacity:1.0; 
stroke:#FFFFFF; stroke-width:0; stroke-opacity:1; 
stroke-linecap:round; stroke-linejoin:round;">
<circle cx="78559.9" cy="45078.7" r="157.48" /> 
</g>
<g style="fill:#FFFFFF; fill-opacity:1.0; 
stroke:#FFFFFF; stroke-width:39.3701; stroke-opacity:1; 
stroke-linecap:round; stroke-linejoin:round;">
</g>
<g style="fill:#FFFFFF; fill-opacity:1.0; 
stroke:#FFFFFF; stroke-width:0; stroke-opacity:1; 
stroke-linecap:round; stroke-linejoin:round;">
<circle cx="72048.1" cy="33858.3" r="590.551" /> 
</g>
<g style="fill:#FFFFFF; fill-opacity:1.0; 
stroke:#FFFFFF; stroke-width:39.3701; stroke-opacity:1; 
stroke-linecap:round; stroke-linejoin:round;">
</g>
<g style="fill:#FFFFFF; fill-opacity:1.0; 
stroke:#FFFFFF; stroke-width:0; stroke-opacity:1; 
stroke-linecap:round; stroke-linejoin:round;">
<circle cx="83071.7" cy="33858.3" r="590.551" /> 
</g>
<g style="fill:#FFFFFF; fill-opacity:1.0; 
stroke:#FFFFFF; stroke-width:39.3701; stroke-opacity:1; 
stroke-linecap:round; stroke-linejoin:round;">
</g>
<g style="fill:#FFFFFF; fill-opacity:1.0; 
stroke:#FFFFFF; stroke-width:0; stroke-opacity:1; 
stroke-linecap:round; stroke-linejoin:round;">
<circle cx="83071.7" cy="44881.9" r="590.551" /> 
</g>
<g style="fill:#FFFFFF; fill-opacity:1.0; 
stroke:#FFFFFF; stroke-width:39.3701; stroke-opacity:1; 
stroke-linecap:round; stroke-linejoin:round;">
</g>
<g style="fill:#FFFFFF; fill-opacity:1.0; 
stroke:#FFFFFF; stroke-width:0; stroke-opacity:1; 
stroke-linecap:round; stroke-linejoin:round;">
<circle cx="72048.1" cy="44881.9" r="590.551" /> 
</g>
<g style="fill:#FFFFFF; fill-opacity:1.0; 
stroke:#FFFFFF; stroke-width:39.3701; stroke-opacity:1; 
stroke-linecap:round; stroke-linejoin:round;">
</g>
<g style="fill:#000000; fill-opacity:1.0; 
stroke:#000000; stroke-width:39.3701; stroke-opacity:1; 
stroke-linecap:round; stroke-linejoin:round;">
</g> 
</svg>
