<?xml version="1.0" encoding="UTF-8" standalone="no"?>
<svg
   xmlns:dc="http://purl.org/dc/elements/1.1/"
   xmlns:cc="http://creativecommons.org/ns#"
   xmlns:rdf="http://www.w3.org/1999/02/22-rdf-syntax-ns#"
   xmlns:svg="http://www.w3.org/2000/svg"
   xmlns="http://www.w3.org/2000/svg"
   xmlns:sodipodi="http://sodipodi.sourceforge.net/DTD/sodipodi-0.dtd"
   xmlns:inkscape="http://www.inkscape.org/namespaces/inkscape"
   version="1.1"
   width="4.0152183cm"
   height="4.0150151cm"
   viewBox="0 0 15807.957 15807.161"
   id="svg2"
   inkscape:version="0.91 r13725"
   sodipodi:docname="osazovak_spodek.svg">
  <metadata
     id="metadata96">
    <rdf:RDF>
      <cc:Work
         rdf:about="">
        <dc:format>image/svg+xml</dc:format>
        <dc:type
           rdf:resource="http://purl.org/dc/dcmitype/StillImage" />
        <dc:title>SVG Picture created as spodek-B.Cu.svg date 2016/12/12 18:50:33 </dc:title>
      </cc:Work>
    </rdf:RDF>
  </metadata>
  <defs
     id="defs94" />
  <sodipodi:namedview
     pagecolor="#ffffff"
     bordercolor="#666666"
     borderopacity="1"
     objecttolerance="10"
     gridtolerance="10"
     guidetolerance="10"
     inkscape:pageopacity="0"
     inkscape:pageshadow="2"
     inkscape:window-width="1440"
     inkscape:window-height="847"
     id="namedview92"
     showgrid="false"
     fit-margin-top="0"
     fit-margin-left="0"
     fit-margin-right="0"
     fit-margin-bottom="0"
     inkscape:zoom="3.5881817"
     inkscape:cx="34.484829"
     inkscape:cy="75.578891"
     inkscape:window-x="-8"
     inkscape:window-y="-8"
     inkscape:window-maximized="1"
     inkscape:current-layer="svg2" />
  <title
     id="title4">SVG Picture created as spodek-B.Cu.svg date 2016/12/12 18:50:33 </title>
  <desc
     id="desc6">Picture generated by PCBNEW </desc>
  <g
     id="g3424"
     style="opacity:0.17000002"
     transform="translate(0.01795936,-4.9750137e-4)">
    <g
       transform="translate(-69655.49,-31466.469)"
       id="g8"
       style="fill:#000000;fill-opacity:1;stroke:#000000;stroke-linecap:round;stroke-linejoin:round;stroke-opacity:1" />
    <g
       transform="translate(-69655.49,-31466.469)"
       id="g10"
       style="fill:#000000;fill-opacity:0;stroke:#000000;stroke-width:-0.0003937;stroke-linecap:round;stroke-linejoin:round;stroke-opacity:1" />
    <g
       transform="translate(-69655.49,-31466.469)"
       id="g12"
       style="fill:#000000;fill-opacity:0;stroke:#000000;stroke-width:59.05509949;stroke-linecap:round;stroke-linejoin:round;stroke-opacity:1">
      <path
         inkscape:connector-curvature="0"
         id="path14"
         d="m 71654,47244 11811,0" />
      <path
         inkscape:connector-curvature="0"
         id="path16"
         d="m 85433,33464 0,11811" />
      <path
         inkscape:connector-curvature="0"
         id="path18"
         d="m 71654,31496 11811,0" />
      <path
         inkscape:connector-curvature="0"
         id="path20"
         d="m 69685,45275 0,-11811" />
      <path
         inkscape:connector-curvature="0"
         id="path22"
         d="m 69685.9,45275.6 a 1968.5,1968.5 0 0 0 1968.5,1968.5" />
      <path
         inkscape:connector-curvature="0"
         id="path24"
         d="m 83465.4,47244.1 a 1968.5,1968.5 0 0 0 1968.5,-1968.5" />
      <path
         inkscape:connector-curvature="0"
         id="path26"
         d="M 85433.9,33464.6 A 1968.5,1968.5 0 0 0 83465.4,31496.1" />
      <path
         inkscape:connector-curvature="0"
         id="path28"
         d="m 71654.4,31496.1 a 1968.5,1968.5 0 0 0 -1968.5,1968.5" />
    </g>
    <g
       transform="translate(-69655.49,-31466.469)"
       id="g30"
       style="fill:#000000;fill-opacity:1;stroke:#000000;stroke-width:0;stroke-linecap:round;stroke-linejoin:round;stroke-opacity:1">
      <circle
         id="circle32"
         r="3543.3101"
         cy="39370.102"
         cx="77559.898" />
    </g>
    <g
       transform="translate(-69655.49,-31466.469)"
       id="g34"
       style="fill:#000000;fill-opacity:1;stroke:#000000;stroke-width:39.37009811;stroke-linecap:round;stroke-linejoin:round;stroke-opacity:1" />
    <g
       transform="translate(-69655.49,-31466.469)"
       id="g36"
       style="fill:#000000;fill-opacity:1;stroke:#000000;stroke-width:0;stroke-linecap:round;stroke-linejoin:round;stroke-opacity:1">
      <circle
         id="circle38"
         r="1181.1"
         cy="33858.301"
         cx="72048.102" />
    </g>
    <g
       transform="translate(-69655.49,-31466.469)"
       id="g40"
       style="fill:#000000;fill-opacity:1;stroke:#000000;stroke-width:39.37009811;stroke-linecap:round;stroke-linejoin:round;stroke-opacity:1" />
    <g
       transform="translate(-69655.49,-31466.469)"
       id="g42"
       style="fill:#000000;fill-opacity:1;stroke:#000000;stroke-width:0;stroke-linecap:round;stroke-linejoin:round;stroke-opacity:1">
      <circle
         id="circle44"
         r="1181.1"
         cy="33858.301"
         cx="83071.703" />
    </g>
    <g
       transform="translate(-69655.49,-31466.469)"
       id="g46"
       style="fill:#000000;fill-opacity:1;stroke:#000000;stroke-width:39.37009811;stroke-linecap:round;stroke-linejoin:round;stroke-opacity:1" />
    <g
       transform="translate(-69655.49,-31466.469)"
       id="g48"
       style="fill:#000000;fill-opacity:1;stroke:#000000;stroke-width:0;stroke-linecap:round;stroke-linejoin:round;stroke-opacity:1">
      <circle
         id="circle50"
         r="1181.1"
         cy="44881.898"
         cx="83071.703" />
    </g>
    <g
       transform="translate(-69655.49,-31466.469)"
       id="g52"
       style="fill:#000000;fill-opacity:1;stroke:#000000;stroke-width:39.37009811;stroke-linecap:round;stroke-linejoin:round;stroke-opacity:1" />
    <g
       transform="translate(-69655.49,-31466.469)"
       id="g54"
       style="fill:#000000;fill-opacity:1;stroke:#000000;stroke-width:0;stroke-linecap:round;stroke-linejoin:round;stroke-opacity:1">
      <circle
         id="circle56"
         r="1181.1"
         cy="44881.898"
         cx="72048.102" />
    </g>
    <g
       transform="translate(-69655.49,-31466.469)"
       id="g58"
       style="fill:#000000;fill-opacity:1;stroke:#000000;stroke-width:39.37009811;stroke-linecap:round;stroke-linejoin:round;stroke-opacity:1" />
    <g
       transform="translate(-69655.49,-31466.469)"
       id="g60"
       style="fill:#000000;fill-opacity:1;stroke:#000000;stroke-width:100;stroke-linecap:round;stroke-linejoin:round;stroke-opacity:1">
      <polyline
         id="polyline62"
         points="71010,31909 70463,32274 70099,32820 69965,33492 69965,45248 70099,45919 70463,46466 71010,46830 71681,46964 83437,46964 84109,46830 84655,46466 85020,45919 85023,45904 84023,45904 83888,46091 83363,46311 82794,46314 82267,46099 82255,46091 82120,45904 72999,45904 72864,46091 72339,46311 71770,46314 71243,46099 71231,46091 71096,45904 72048,44952 72999,45904 82120,45904 83071,44952 84023,45904 85023,45904 85154,45248 85154,45159 84504,45159 84288,45686 84280,45698 84094,45833 83142,44881 83001,44881 82049,45833 81862,45698 81642,45173 81641,45159 73480,45159 73265,45686 73257,45698 73070,45833 72118,44881 71977,44881 71025,45833 70838,45698 70618,45173 70615,44604 70830,44077 70838,44065 71025,43930 71977,44881 72118,44881 73070,43930 73257,44065 73477,44590 73480,45159 81641,45159 81639,44604 81854,44077 81862,44065 82049,43930 83001,44881 83142,44881 84094,43930 84280,44065 84501,44590 84504,45159 85154,45159 85154,43859 84023,43859 83071,44811 82120,43859 72999,43859 72048,44811 71096,43859 71231,43672 71756,43452 72325,43449 72852,43664 72864,43672 72999,43859 82120,43859 82255,43672 82779,43452 83349,43449 83876,43664 83888,43672 84023,43859 85154,43859 85154,42095 80214,42095 79792,42528 78414,43142 76905,43181 75496,42641 75327,42528 74904,42095 77559,39440 80214,42095 85154,42095 85154,40024 81371,40024 80831,41433 80718,41602 80285,42025 77630,39370 77489,39370 74834,42025 74401,41602 73787,40224 73748,38715 74288,37306 74401,37137 74834,36715 77489,39370 77630,39370 80285,36715 80718,37137 81332,38515 81371,40024 85154,40024 85154,36644 80214,36644 77559,39299 74904,36644 75327,36211 76705,35597 78214,35558 79623,36098 79792,36211 80214,36644 85154,36644 85154,34880 84023,34880 83888,35067 83363,35287 82794,35290 82267,35075 82255,35067 82120,34880 72999,34880 72864,35067 72339,35287 71770,35290 71243,35075 71231,35067 71096,34880 72048,33928 72999,34880 82120,34880 83071,33928 84023,34880 85154,34880 85154,34135 84504,34135 84288,34662 84280,34674 84094,34809 83142,33858 83001,33858 82049,34809 81862,34674 81642,34150 81641,34135 73480,34135 73265,34662 73257,34674 73070,34809 72118,33858 71977,33858 71025,34809 70838,34674 70618,34150 70615,33580 70830,33053 70838,33041 71025,32906 71977,33858 72118,33858 73070,32906 73257,33041 73477,33566 73480,34135 81641,34135 81639,33580 81854,33053 81862,33041 82049,32906 83001,33858 83142,33858 84094,32906 84280,33041 84501,33566 84504,34135 85154,34135 85154,33492 85023,32835 84023,32835 83071,33787 82120,32835 72999,32835 72048,33787 71096,32835 71231,32649 71756,32428 72325,32425 72852,32641 72864,32649 72999,32835 82120,32835 82255,32649 82779,32428 83349,32425 83876,32641 83888,32649 84023,32835 85023,32835 85020,32820 84655,32274 84109,31909 83437,31775 71681,31775 71010,31909 "
         style="fill-rule:evenodd" />
    </g>
    <g
       transform="translate(-69655.49,-31466.469)"
       id="g64"
       style="fill:#ffffff;fill-opacity:1;stroke:#ffffff;stroke-width:100;stroke-linecap:round;stroke-linejoin:round;stroke-opacity:1" />
    <g
       transform="translate(-69655.49,-31466.469)"
       id="g66"
       style="fill:#ffffff;fill-opacity:1;stroke:#ffffff;stroke-width:0;stroke-linecap:round;stroke-linejoin:round;stroke-opacity:1">
      <circle
         id="circle68"
         r="590.55103"
         cy="33858.301"
         cx="72048.102" />
    </g>
    <g
       transform="translate(-69655.49,-31466.469)"
       id="g70"
       style="fill:#ffffff;fill-opacity:1;stroke:#ffffff;stroke-width:39.37009811;stroke-linecap:round;stroke-linejoin:round;stroke-opacity:1" />
    <g
       transform="translate(-69655.49,-31466.469)"
       id="g72"
       style="fill:#ffffff;fill-opacity:1;stroke:#ffffff;stroke-width:0;stroke-linecap:round;stroke-linejoin:round;stroke-opacity:1">
      <circle
         id="circle74"
         r="590.55103"
         cy="33858.301"
         cx="83071.703" />
    </g>
    <g
       transform="translate(-69655.49,-31466.469)"
       id="g76"
       style="fill:#ffffff;fill-opacity:1;stroke:#ffffff;stroke-width:39.37009811;stroke-linecap:round;stroke-linejoin:round;stroke-opacity:1" />
    <g
       transform="translate(-69655.49,-31466.469)"
       id="g78"
       style="fill:#ffffff;fill-opacity:1;stroke:#ffffff;stroke-width:0;stroke-linecap:round;stroke-linejoin:round;stroke-opacity:1">
      <circle
         id="circle80"
         r="590.55103"
         cy="44881.898"
         cx="83071.703" />
    </g>
    <g
       transform="translate(-69655.49,-31466.469)"
       id="g82"
       style="fill:#ffffff;fill-opacity:1;stroke:#ffffff;stroke-width:39.37009811;stroke-linecap:round;stroke-linejoin:round;stroke-opacity:1" />
    <g
       transform="translate(-69655.49,-31466.469)"
       id="g84"
       style="fill:#ffffff;fill-opacity:1;stroke:#ffffff;stroke-width:0;stroke-linecap:round;stroke-linejoin:round;stroke-opacity:1">
      <circle
         id="circle86"
         r="590.55103"
         cy="44881.898"
         cx="72048.102" />
    </g>
    <g
       transform="translate(-69655.49,-31466.469)"
       id="g88"
       style="fill:#ffffff;fill-opacity:1;stroke:#ffffff;stroke-width:39.37009811;stroke-linecap:round;stroke-linejoin:round;stroke-opacity:1" />
    <g
       transform="translate(-69655.49,-31466.469)"
       id="g90"
       style="fill:#000000;fill-opacity:1;stroke:#000000;stroke-width:39.37009811;stroke-linecap:round;stroke-linejoin:round;stroke-opacity:1" />
  </g>
  <g
     id="g3502"
     transform="matrix(-1,0,0,1,85463.428,-31466.469)">
    <g
       id="g3474"
       style="fill:#000000;fill-opacity:1;stroke:#000000;stroke-linecap:round;stroke-linejoin:round;stroke-opacity:1" />
    <g
       id="g3476"
       style="fill:#000000;fill-opacity:0;stroke:#000000;stroke-width:-0.0003937;stroke-linecap:round;stroke-linejoin:round;stroke-opacity:1" />
    <g
       id="g3478"
       style="fill:#000000;fill-opacity:0;stroke:#000000;stroke-width:59.05509949;stroke-linecap:round;stroke-linejoin:round;stroke-opacity:1">
      <path
         id="path3480"
         d="m 71654,47244 11811,0"
         inkscape:connector-curvature="0" />
      <path
         id="path3482"
         d="m 85433,33464 0,11811"
         inkscape:connector-curvature="0" />
      <path
         id="path3484"
         d="m 71654,31496 11811,0"
         inkscape:connector-curvature="0" />
      <path
         id="path3486"
         d="m 69685,45275 0,-11811"
         inkscape:connector-curvature="0" />
      <path
         id="path3488"
         d="m 69685.9,45275.6 a 1968.5,1968.5 0 0 0 1968.5,1968.5"
         inkscape:connector-curvature="0" />
      <path
         id="path3490"
         d="m 83465.4,47244.1 a 1968.5,1968.5 0 0 0 1968.5,-1968.5"
         inkscape:connector-curvature="0" />
      <path
         id="path3492"
         d="M 85433.9,33464.6 A 1968.5,1968.5 0 0 0 83465.4,31496.1"
         inkscape:connector-curvature="0" />
      <path
         id="path3494"
         d="m 71654.4,31496.1 a 1968.5,1968.5 0 0 0 -1968.5,1968.5"
         inkscape:connector-curvature="0" />
    </g>
  </g>
  <g
     id="g3555"
     transform="translate(-69655.472,-31466.469)">
    <g
       id="g3521"
       style="fill:#000000;fill-opacity:1;stroke:#000000;stroke-linecap:round;stroke-linejoin:round;stroke-opacity:1" />
    <g
       id="g3523"
       style="fill:#000000;fill-opacity:0;stroke:#000000;stroke-width:-0.0003937;stroke-linecap:round;stroke-linejoin:round;stroke-opacity:1" />
    <g
       id="g3525"
       style="fill:#000000;fill-opacity:0;stroke:#000000;stroke-width:118.11000061;stroke-linecap:round;stroke-linejoin:round;stroke-opacity:1">
      <path
         id="path3527"
         d="m 77784,39412 -450,0"
         inkscape:connector-curvature="0" />
      <path
         id="path3529"
         d="m 77559,39637 0,-450"
         inkscape:connector-curvature="0" />
    </g>
    <g
       id="g3531"
       style="fill:#000000;fill-opacity:0;stroke:#000000;stroke-width:59.05509949;stroke-linecap:round;stroke-linejoin:round;stroke-opacity:1">
      <path
         id="path3533"
         d="m 71654,47244 11811,0"
         inkscape:connector-curvature="0" />
      <path
         id="path3535"
         d="m 85433,33464 0,11811"
         inkscape:connector-curvature="0" />
      <path
         id="path3537"
         d="m 71654,31496 11811,0"
         inkscape:connector-curvature="0" />
      <path
         id="path3539"
         d="m 69685,45275 0,-11811"
         inkscape:connector-curvature="0" />
      <path
         id="path3541"
         d="m 69685.9,45275.6 a 1968.5,1968.5 0 0 0 1968.5,1968.5"
         inkscape:connector-curvature="0" />
      <path
         id="path3543"
         d="m 83465.4,47244.1 a 1968.5,1968.5 0 0 0 1968.5,-1968.5"
         inkscape:connector-curvature="0" />
      <path
         id="path3545"
         d="M 85433.9,33464.6 A 1968.5,1968.5 0 0 0 83465.4,31496.1"
         inkscape:connector-curvature="0" />
      <path
         id="path3547"
         d="m 71654.4,31496.1 a 1968.5,1968.5 0 0 0 -1968.5,1968.5"
         inkscape:connector-curvature="0" />
    </g>
  </g>
</svg>
