<?xml version="1.0" standalone="no"?>
 <!DOCTYPE svg PUBLIC "-//W3C//DTD SVG 1.1//EN" 
 "http://www.w3.org/Graphics/SVG/1.1/DTD/svg11.dtd"> 
<svg xmlns="http://www.w3.org/2000/svg" version="1.1" 
    width="29.7002cm" height="21.0007cm" viewBox="0 0 116930 82680 ">
<title>SVG Picture created as spodek-B.Cu.svg date 2016/12/12 18:50:33 </title>
  <desc>Picture generated by PCBNEW </desc>
<g style="fill:#000000; fill-opacity:1;stroke:#000000; stroke-opacity:1;
stroke-linecap:round; stroke-linejoin:round; "
 transform="translate(0 0) scale(1 1)">
</g>
<g style="fill:#000000; fill-opacity:0.0; 
stroke:#000000; stroke-width:-0.000393701; stroke-opacity:1; 
stroke-linecap:round; stroke-linejoin:round;">
</g>
<g style="fill:#000000; fill-opacity:0.0; 
stroke:#000000; stroke-width:59.0551; stroke-opacity:1; 
stroke-linecap:round; stroke-linejoin:round;">
<path d="M71654 47244
L83465 47244
" />
<path d="M85433 33464
L85433 45275
" />
<path d="M71654 31496
L83465 31496
" />
<path d="M69685 45275
L69685 33464
" />
<path d="M69685.9 45275.6 A1968.5 1968.5 0.0 0 0 71654.4 47244.1 " />
<path d="M83465.4 47244.1 A1968.5 1968.5 0.0 0 0 85433.9 45275.6 " />
<path d="M85433.9 33464.6 A1968.5 1968.5 0.0 0 0 83465.4 31496.1 " />
<path d="M71654.4 31496.1 A1968.5 1968.5 0.0 0 0 69685.9 33464.6 " />
</g>
<g style="fill:#000000; fill-opacity:1.0; 
stroke:#000000; stroke-width:0; stroke-opacity:1; 
stroke-linecap:round; stroke-linejoin:round;">
<circle cx="77559.9" cy="39370.1" r="3543.31" /> 
</g>
<g style="fill:#000000; fill-opacity:1.0; 
stroke:#000000; stroke-width:39.3701; stroke-opacity:1; 
stroke-linecap:round; stroke-linejoin:round;">
</g>
<g style="fill:#000000; fill-opacity:1.0; 
stroke:#000000; stroke-width:0; stroke-opacity:1; 
stroke-linecap:round; stroke-linejoin:round;">
<circle cx="72048.1" cy="33858.3" r="1181.1" /> 
</g>
<g style="fill:#000000; fill-opacity:1.0; 
stroke:#000000; stroke-width:39.3701; stroke-opacity:1; 
stroke-linecap:round; stroke-linejoin:round;">
</g>
<g style="fill:#000000; fill-opacity:1.0; 
stroke:#000000; stroke-width:0; stroke-opacity:1; 
stroke-linecap:round; stroke-linejoin:round;">
<circle cx="83071.7" cy="33858.3" r="1181.1" /> 
</g>
<g style="fill:#000000; fill-opacity:1.0; 
stroke:#000000; stroke-width:39.3701; stroke-opacity:1; 
stroke-linecap:round; stroke-linejoin:round;">
</g>
<g style="fill:#000000; fill-opacity:1.0; 
stroke:#000000; stroke-width:0; stroke-opacity:1; 
stroke-linecap:round; stroke-linejoin:round;">
<circle cx="83071.7" cy="44881.9" r="1181.1" /> 
</g>
<g style="fill:#000000; fill-opacity:1.0; 
stroke:#000000; stroke-width:39.3701; stroke-opacity:1; 
stroke-linecap:round; stroke-linejoin:round;">
</g>
<g style="fill:#000000; fill-opacity:1.0; 
stroke:#000000; stroke-width:0; stroke-opacity:1; 
stroke-linecap:round; stroke-linejoin:round;">
<circle cx="72048.1" cy="44881.9" r="1181.1" /> 
</g>
<g style="fill:#000000; fill-opacity:1.0; 
stroke:#000000; stroke-width:39.3701; stroke-opacity:1; 
stroke-linecap:round; stroke-linejoin:round;">
</g>
<g style="fill:#000000; fill-opacity:1.0; 
stroke:#000000; stroke-width:100; stroke-opacity:1; 
stroke-linecap:round; stroke-linejoin:round;">
<polyline style="fill-rule:evenodd;"
points="71010,31909
70463,32274
70099,32820
69965,33492
69965,45248
70099,45919
70463,46466
71010,46830
71681,46964
83437,46964
84109,46830
84655,46466
85020,45919
85023,45904
84023,45904
83888,46091
83363,46311
82794,46314
82267,46099
82255,46091
82120,45904
72999,45904
72864,46091
72339,46311
71770,46314
71243,46099
71231,46091
71096,45904
72048,44952
72999,45904
82120,45904
83071,44952
84023,45904
85023,45904
85154,45248
85154,45159
84504,45159
84288,45686
84280,45698
84094,45833
83142,44881
83001,44881
82049,45833
81862,45698
81642,45173
81641,45159
73480,45159
73265,45686
73257,45698
73070,45833
72118,44881
71977,44881
71025,45833
70838,45698
70618,45173
70615,44604
70830,44077
70838,44065
71025,43930
71977,44881
72118,44881
73070,43930
73257,44065
73477,44590
73480,45159
81641,45159
81639,44604
81854,44077
81862,44065
82049,43930
83001,44881
83142,44881
84094,43930
84280,44065
84501,44590
84504,45159
85154,45159
85154,43859
84023,43859
83071,44811
82120,43859
72999,43859
72048,44811
71096,43859
71231,43672
71756,43452
72325,43449
72852,43664
72864,43672
72999,43859
82120,43859
82255,43672
82779,43452
83349,43449
83876,43664
83888,43672
84023,43859
85154,43859
85154,42095
80214,42095
79792,42528
78414,43142
76905,43181
75496,42641
75327,42528
74904,42095
77559,39440
80214,42095
85154,42095
85154,40024
81371,40024
80831,41433
80718,41602
80285,42025
77630,39370
77489,39370
74834,42025
74401,41602
73787,40224
73748,38715
74288,37306
74401,37137
74834,36715
77489,39370
77630,39370
80285,36715
80718,37137
81332,38515
81371,40024
85154,40024
85154,36644
80214,36644
77559,39299
74904,36644
75327,36211
76705,35597
78214,35558
79623,36098
79792,36211
80214,36644
85154,36644
85154,34880
84023,34880
83888,35067
83363,35287
82794,35290
82267,35075
82255,35067
82120,34880
72999,34880
72864,35067
72339,35287
71770,35290
71243,35075
71231,35067
71096,34880
72048,33928
72999,34880
82120,34880
83071,33928
84023,34880
85154,34880
85154,34135
84504,34135
84288,34662
84280,34674
84094,34809
83142,33858
83001,33858
82049,34809
81862,34674
81642,34150
81641,34135
73480,34135
73265,34662
73257,34674
73070,34809
72118,33858
71977,33858
71025,34809
70838,34674
70618,34150
70615,33580
70830,33053
70838,33041
71025,32906
71977,33858
72118,33858
73070,32906
73257,33041
73477,33566
73480,34135
81641,34135
81639,33580
81854,33053
81862,33041
82049,32906
83001,33858
83142,33858
84094,32906
84280,33041
84501,33566
84504,34135
85154,34135
85154,33492
85023,32835
84023,32835
83071,33787
82120,32835
72999,32835
72048,33787
71096,32835
71231,32649
71756,32428
72325,32425
72852,32641
72864,32649
72999,32835
82120,32835
82255,32649
82779,32428
83349,32425
83876,32641
83888,32649
84023,32835
85023,32835
85020,32820
84655,32274
84109,31909
83437,31775
71681,31775
71010,31909
" /> 
</g>
<g style="fill:#FFFFFF; fill-opacity:1.0; 
stroke:#FFFFFF; stroke-width:100; stroke-opacity:1; 
stroke-linecap:round; stroke-linejoin:round;">
</g>
<g style="fill:#FFFFFF; fill-opacity:1.0; 
stroke:#FFFFFF; stroke-width:0; stroke-opacity:1; 
stroke-linecap:round; stroke-linejoin:round;">
<circle cx="72048.1" cy="33858.3" r="590.551" /> 
</g>
<g style="fill:#FFFFFF; fill-opacity:1.0; 
stroke:#FFFFFF; stroke-width:39.3701; stroke-opacity:1; 
stroke-linecap:round; stroke-linejoin:round;">
</g>
<g style="fill:#FFFFFF; fill-opacity:1.0; 
stroke:#FFFFFF; stroke-width:0; stroke-opacity:1; 
stroke-linecap:round; stroke-linejoin:round;">
<circle cx="83071.7" cy="33858.3" r="590.551" /> 
</g>
<g style="fill:#FFFFFF; fill-opacity:1.0; 
stroke:#FFFFFF; stroke-width:39.3701; stroke-opacity:1; 
stroke-linecap:round; stroke-linejoin:round;">
</g>
<g style="fill:#FFFFFF; fill-opacity:1.0; 
stroke:#FFFFFF; stroke-width:0; stroke-opacity:1; 
stroke-linecap:round; stroke-linejoin:round;">
<circle cx="83071.7" cy="44881.9" r="590.551" /> 
</g>
<g style="fill:#FFFFFF; fill-opacity:1.0; 
stroke:#FFFFFF; stroke-width:39.3701; stroke-opacity:1; 
stroke-linecap:round; stroke-linejoin:round;">
</g>
<g style="fill:#FFFFFF; fill-opacity:1.0; 
stroke:#FFFFFF; stroke-width:0; stroke-opacity:1; 
stroke-linecap:round; stroke-linejoin:round;">
<circle cx="72048.1" cy="44881.9" r="590.551" /> 
</g>
<g style="fill:#FFFFFF; fill-opacity:1.0; 
stroke:#FFFFFF; stroke-width:39.3701; stroke-opacity:1; 
stroke-linecap:round; stroke-linejoin:round;">
</g>
<g style="fill:#000000; fill-opacity:1.0; 
stroke:#000000; stroke-width:39.3701; stroke-opacity:1; 
stroke-linecap:round; stroke-linejoin:round;">
</g> 
</svg>
