<?xml version="1.0" standalone="no"?>
 <!DOCTYPE svg PUBLIC "-//W3C//DTD SVG 1.1//EN" 
 "http://www.w3.org/Graphics/SVG/1.1/DTD/svg11.dtd"> 
<svg xmlns="http://www.w3.org/2000/svg" version="1.1" 
    width="29.7002cm" height="21.0007cm" viewBox="0 0 116930 82680 ">
<title>SVG Picture created as spodek-B.SilkS.svg date 2016/12/12 18:50:34 </title>
  <desc>Picture generated by PCBNEW </desc>
<g style="fill:#000000; fill-opacity:1;stroke:#000000; stroke-opacity:1;
stroke-linecap:round; stroke-linejoin:round; "
 transform="translate(0 0) scale(1 1)">
</g>
<g style="fill:#000000; fill-opacity:0.0; 
stroke:#000000; stroke-width:-0.000393701; stroke-opacity:1; 
stroke-linecap:round; stroke-linejoin:round;">
</g>
<g style="fill:#000000; fill-opacity:0.0; 
stroke:#000000; stroke-width:118.11; stroke-opacity:1; 
stroke-linecap:round; stroke-linejoin:round;">
<path d="M77784 39412
L77334 39412
" />
<path d="M77559 39637
L77559 39187
" />
</g>
<g style="fill:#000000; fill-opacity:0.0; 
stroke:#000000; stroke-width:59.0551; stroke-opacity:1; 
stroke-linecap:round; stroke-linejoin:round;">
<path d="M71654 47244
L83465 47244
" />
<path d="M85433 33464
L85433 45275
" />
<path d="M71654 31496
L83465 31496
" />
<path d="M69685 45275
L69685 33464
" />
<path d="M69685.9 45275.6 A1968.5 1968.5 0.0 0 0 71654.4 47244.1 " />
<path d="M83465.4 47244.1 A1968.5 1968.5 0.0 0 0 85433.9 45275.6 " />
<path d="M85433.9 33464.6 A1968.5 1968.5 0.0 0 0 83465.4 31496.1 " />
<path d="M71654.4 31496.1 A1968.5 1968.5 0.0 0 0 69685.9 33464.6 " />
</g> 
</svg>
